<svg xml:space="preserve" y="0" x="0" viewBox="0 0 494.3 345.1" xmlns="http://www.w3.org/2000/svg" id="ss2" version="1.1"><style> #ss2 .st0 { fill: #fff; } #ss2 .st1 { fill: #2a2c32; } #ss2 .st10 { fill: #fff; stroke: #25282f; stroke-linecap: round; stroke-linejoin: round; stroke-miterlimit: 10; } #ss2 .st11, #ss2 .st13 { fill: none; stroke: #2a2c32; } #ss2 .st11 { stroke-miterlimit: 10; } #ss2 .st13 { stroke-linecap: round; stroke-linejoin: round; } #ss2 .st14 { fill: #282b33; } #ss2 .st16 { fill: none; stroke: #25282f; stroke-linecap: round; stroke-linejoin: round; stroke-miterlimit: 10; } </style><path d="M425 90.4c21 0 38 17 38 38 0 11-4.7 21-12.2 27.9l6.9 21.6-21.3-13.3c-3.6 1.1-7.4 1.8-11.4 1.8-21 0-38-17-38-38-.1-21 17-38 38-38zM395.8 30.9c-2.8-1-4.7-3.3-6.4-5.9s-3.2-5.6-5.4-6.9c-1.8-1-3.9-.9-5.6-2.3-2.4-2.2-3-7.2-5.6-8.9-1.5-1-3.3-.6-4.8.3-1.6.8-3 2-4.6 2.6-2.3.8-4.9.2-6.9-1.7-1.6-1.5-3.8-6.9-9.9-6.9-3.9 0-12.1.5-19.2 19.9-2.8 7.5-16.6 8.7-23.2 9.9h91.6zM.4 87.9C10.4 85.2 26.5 83 40 74c3.8-2.5 7.8-11.3 17.4-17.1 11.8-7 17.9-.2 25.3-.4 2.2-.1 4.6-.8 6-2.6 1-1.4 1.3-3.2 1.6-4.9.9-5 7.6-19.7 29.6-15.3 6.1 1.2 11.7 5.1 14.9 10.4 4.2 6.9 2.9 15.7 5.3 23.5.4 1.2.9 2.5 2 3.2 1 .6 2.2.6 3.3.5 6-.5 9.2-4.3 17.4 1.2 2.6 1.7 3.4 5.1 4.3 8 .8 2.5 1.5 4.9 2.3 7.4H.4z" class="st10"></path><path d="m264.3 160.5-8.6-3.5-2.1-25.6 2.3-.9 4.3-3.1 2.4-3.3 1.6-4.2 1.5-5.7.6-4.4.3-3.1 1.4-1 1.8-1.3.8-1.5.3-1.9v-2l-.2-1.6-1.1-1.8-2.4-1.7-1.6-.6-1-10.4-2.5-19.8-1.6-1.8-6.9-.8s-32.4 1-32.4 1.1v14.3l-14.6 1.7-1.2 16.1L204 95l-1.6 1.2-1.1 2.2s-.3 1.9-.3 2.1c0 .2.6 2.7.6 2.7l.6 1.5 1.1.7 1.2.6 1.6.6 2.3.1-4.1 50.7-19 5.1 10.1 6.8s26.4 5.1 26.8 4.9c.4-.1 18.2-2.1 18.2-2.1l12.5-3.5 11.4-8.1z" class="st0"></path><path d="M245.2 42.1c21 0 23.8 8.1 23.7 13.4-.1 5.3-6.4 9.1-6.4 9.1-.2-1.5-1.8-2.2-1.8-2.2h-47.2c-.3 0-.7 0-1 .1-1 .1-1.9.5-2.7 1.1 0-8.2 11.9-21.5 35.4-21.5zM254.5 112.9c-.7-2.1-2.9-3.7-5.5-3.7-2.8 0-5.1 1.8-5.6 4.1-.1.3-.1.6-.1.9v11.4h4.3V122h2.4v3.6h4.6v-11.4c.1-.4 0-.9-.1-1.3zm8 11.3c-.6 1.2-1.3 2.3-2.1 3.1-1.7 1.9-4.1 3.3-6.7 4.2-.2.1-.3.1-.5.2-4.3 1.4-9.6 1.6-14.9.9-2.6-.3-5.6-1.1-8.4-2.2l-2.2-.9c-5.9-2.8-11.2-7.2-13-13-2.2-7.2-2.2-18.3-2.1-22.9 0-1.3.1-2.1.1-2.1s4.8 32.8 24.6 32.8v-9.7c0-6.5 5.3-11.8 11.8-11.8 6.5 0 11.8 5.3 11.8 11.8v9.7c.4 0 1 0 1.6-.1zM258 84.6c.8 0 1.4.6 1.4 1.4s-.6 1.4-1.4 1.4c-.8 0-1.4-.6-1.4-1.4s.6-1.4 1.4-1.4z" class="st1"></path><path d="m253.7 131.5.7 9.4-24.6-10.5c2.9 1.1 5.8 1.9 8.4 2.2 5.3.7 10.6.5 14.9-.9.3 0 .5-.1.6-.2zM227.7 129.5l2.2.9c-.7-.3-1.5-.6-2.2-.9zM222.8 62.7v15h-16.5l.6-9.2c.1-2 1.2-3.7 2.7-4.8.8-.6 1.7-1 2.7-1.1v.2h10.5z" class="st1"></path><path d="m281.4 167.2-25.7-10.1-1.2-16.2-.8-9.4M188.8 161.5l15.4-4.5 3.9-49.9c-3.8 0-6.9-3.1-6.9-6.9 0-2.8 1.7-5.3 4.1-6.3.9-.4 1.8-.6 2.8-.6.7 0 1.4.1 2.1.3M266.6 106.7c2.7-1 4.5-3.5 4.5-6.5 0-3.3-2.3-6.1-5.4-6.7M212.6 91.5s4.8 32.8 24.6 32.8v-9.7c0-6.5 5.3-11.8 11.8-11.8" class="st11"></path><path d="M262.5 124.2c-.6.1-1.2.1-1.8.1v-9.7c0-6.5-5.3-11.8-11.8-11.8M227.6 129.4c-5.9-2.8-11.2-7.2-13-13-2.2-7.2-2.2-18.3-2.1-22.9 0-1.3.1-2.1.1-2.1M238.3 132.6c-2.6-.3-5.6-1.1-8.4-2.2-.7-.3-1.5-.6-2.2-.9" class="st11"></path><path stroke-miterlimit="10" stroke="#eee" fill="none" d="M253.3 131.7c-4.3 1.4-9.6 1.6-14.9.9"></path><path d="m205.3 93.9 1.1-16.2.6-9.2c.1-2 1.2-3.7 2.7-4.8.8-.6 1.7-1 2.7-1.1.3-.1.6-.1 1-.1h47.2s1.6.6 1.8 2.2c.1.7.9 7.2 1.7 14.8.5 4.7 1.1 9.7 1.5 14.1.5 4.4.8 8 .9 9.8.1 1 .1 2.2 0 3.4-.2 5.4-1.6 12.7-4.1 17.5-.6 1.2-1.3 2.3-2.1 3.1-1.7 1.9-4.1 3.3-6.7 4.2-.2.1-.3.1-.5.2" class="st11"></path><path d="M209.8 63.7c0-8.2 11.9-21.5 35.4-21.5 21 0 23.8 8.1 23.7 13.4-.1 5.3-6.4 9.1-6.4 9.1" class="st11"></path><path d="M212.6 62.7h10.2v15H206.9M229.3 78.7c4.6-1.7 9.3-1.8 14.1-.6M252.6 78.4c3.9-1.3 7.7-1.3 11.5.3" class="st11"></path><path d="M259.4 86c0 .8-.6 1.4-1.4 1.4-.8 0-1.4-.6-1.4-1.4s.6-1.4 1.4-1.4c.7 0 1.4.6 1.4 1.4z" class="st13"></path><path d="M248.5 83.3c.9 5.9 1.3 8.6 3.9 10 2.6 1.4 3.4 2.4 3.4 5.3 0 2.8-2 4.2-4.2 4.2H244.9c-2.1 0-2.8-1.5-2.8-4M243.5 113.3c-.1.3-.1.6-.1.9v11.4h4.3V122h2.4v3.6h4.6v-11.4c0-.5-.1-.9-.2-1.3-.7-2.1-2.9-3.7-5.5-3.7-2.7 0-5 1.8-5.5 4.1z" class="st11"></path><path d="M243.4 113.3c4.6 1.1 7.3 1.1 11.1-.4.1 0 .1-.1.2-.1M227.6 129.4l.1.1 2.2.9 24.6 10.5M208.4 77.7v4.5M211.7 77.7v4.5M215.1 77.7v4.5M218.5 77.7v4.5M221.9 77.7v4.5M210 82.2v4.5M206.7 82.2v4.5M213.4 82.2v4.5M216.8 82.2v4.5M220.2 82.2v4.5" class="st11"></path><path d="m105 245.6 2.7 7.8 2-3.1zM307.8 283l-4.7-1.6 3.2-1zM149.4 281.4l-4.7-1.2 3-6.2zM354.4 255.6s-3 4.6-7.9 3.7c-1.4-1.8-1.5-4.5-1.5-4.5l9.4.8z" class="st14"></path><path d="m255.7 157.3 28.7 10.3c15.5 4.2 26.1 9.2 31.8 13.6 2.6 2 4.9 7.9 6.6 10.7l33.1 93.7 69.5-65.4 11.6 17.4s-42.5 73.8-65.9 91.7c-26 20-43.9-10.9-43.9-10.9L296 261.5l-5.9 82.9H168.5l-9.8-90.3-13 24.6-25.3 40.2c-22.8 33.7-47.9 3.4-49.3-11.2-3.7-19.5-5.7-65.3-6.5-107.7l25.7-2.7 15.3 64.7 17.3-59.7c1.1-7.9 9.8-25.8 22.4-29.8l59-14.9" class="st10"></path><path fill="#009faa" d="M264.4 157.7s-21.8 20.5-71.8 2.1c-7 1.6-32.4 7-32.4 7l-13.8 3.5s-17.2 2.9-23.5 24.4c-6.3 21.6-18 50.8-18 50.8s3.7 12.3 22.8 17.3 21.7 18.6 21.7 18.6l8.3-20.3 8.9 83.9h127.2l3.5-78.2 5.8 14.6s20.8-3.1 27.2-14.7c6.3-11.4 24.2-11.2 24.2-11.2L320.9 185s-2.7-7-9.7-9.6c-7-2.6-46.8-17.7-46.8-17.7z"></path><path d="M273.8 161.9s-44.6 32.5-89.3.2M186.1 248.3h13.8c5.6 0 10.1-4.5 10.1-10.1v-18.1h-34v18.1c0 5.6 4.5 10.1 10.1 10.1zM210 226.3h-34M145.3 172.2s20.8 26.8 12.4 88.9M313.1 176.3l-15.8 91.4" class="st16"></path><path d="m306 219.8-8.7 47.9 5.1 11.5z" class="st14"></path><path d="M64.6 201.2s-2.5-15.6-4.1-18.9c-1.6-3.3-7.2-11.4-7.2-11.4l-12.2-9.6s1.4-3 5.1-1.5c3.7 1.5 9.2 5.8 9.2 5.8s-12.1-16.4-14.3-17.8c3.1-2.8 5.3-1.5 6.8-.7s11.5 11.2 11.5 11.2l-5.9-18.9s3.3-2.8 6.1.6c2.7 3.5 8.9 21.1 8.9 21.1l5.4-7.4s2.8-1.9 6.1-.6 10 4.7 10 4.7-.6 5.6-9 2.5c-4.7-1.7-3.4 3.6-3.4 3.6s1.1 7.2 4.2 8c3.1.8 7-.4 7.4-3.8.4-3.4.7-10.6 7.4-11.3l-1.1 14.3s-1.8 13.1-4.3 17.5c-2.5 4.5-.4 10.2-.4 10.2M110.7 284.1l-5.7-24.8" class="st10"></path><path d="m439 234.4-4.5 6-18.5-6.2c-1.1-2.1 9.3-11.3 9.5-15.2l6.6 2.2 6.9 13.2z" class="st0"></path><path d="M417.6 227.4c1.3-1.4 4.6-4.4 5.8-7.3 0-.1.4-.5.4-.5 0-3.5 4.1-7.7 10.5-12.9 6.8-5.5 14-7.2 27.8-10 5.2-1 18.1-3.1 19.7-1.3 1.6 1.8-1.7 5-4 7.1-2.3 2.2-5.6 10-6.9 11.4-1.3 1.4-5.9 4.5-6.4 5.6-.5 1.1-.9 2.8-3 4.1-1.4.9-8.3 5.9-15.5 7.4h-.1c-.3.1-.5.1-.8.2-2 .4-9.2 8.3-10.2 9.5" class="st10"></path><path fill="#25282f" d="m483.7 170.2 8.9 7.7c1.3 1.1 1.3 2.9.2 4.1l-46.9 46.3c-1.2 1.2-3.2 1.2-4.5.1l-8.9-7.7c-1.3-1.1-1.3-2.9-.2-4.1l46.9-46.4c1.2-1.1 3.2-1.1 4.5 0z"></path><path d="m480.5 171.7 7.4 6.4-46.7 46.3-7.5-6.4z" class="st0"></path><path d="m469.4 182.6-3 16.8-15.7 15.6 3-16.8z" fill="#e8e8e8"></path><path d="M476.7 208.5c.6-.1 1.2-.5 1.5-1 1.6-2.5 6.8-10.7 7.8-12.3 3.1-4.8-.4-5.4-2.4-4.2-1.5.9-6.3 6.6-8.7 11.4-2.3 4.3-2.2 6.9 1.8 6.1z" class="st10"></path><path d="M476.5 213.2c.3-.2.5-.6.6-1 .5-2.6 2.5-13 2.8-14.8.4-2.1-3.3-3.5-5.4.1-.8 1.4-2.7 6.7-3.4 11.8-.8 4.9 1.4 6.9 5.4 3.9z" class="st10"></path><path d="M471.3 218.3c.3-.3.5-.7.5-1.1.1-2.5.3-12.1.4-13.9 0-2-3.9-2.4-5.4 1.4-.6 1.5-1.6 6.6-1.5 11.3.1 4.6 2.5 5.9 6 2.3z" class="st10"></path><path d="M461.6 223.7c1.9.4 4.4-1.1 4.4-3.5 0 0-.5-10-.6-11.8-.1-1.8-4-1.4-5.2 2.3-.4 1.1-.8 4.1-.8 7.3M423.9 219c-.2-1.5.1-3.4 1.5-6 1.7-3.2 13.6-15.9 19.4-17.6 5.8-1.8 11.8-6.9 12.7-5.9.8 1 1.2 3.9-2.2 7.7-2.5 2.8-6.4 4-8.5 5.4-.3.1-.5.3-.8.5M431.4 144.7c0 2.9-2.4 5.2-5.4 5.2s-5.4-2.3-5.4-5.2h10.8z" class="st10"></path><path d="M413 124.5c0-8.2 2.6-14.1 11.2-15 1.2-.1 2.4-.1 3.5 0 8.7.9 11.2 6.7 11.2 15-.2 8.1 3.5 11.8 6.2 15.7v3.7c0 .5-.4.9-.9.9H407.6c-.5 0-.9-.4-.9-.9v-3.7c2.7-3.9 6.5-7.6 6.3-15.7zM406.7 140.1h38.5" class="st10"></path><path d="M427.7 109.5c-1.1-.1-2.3-.1-3.5 0-.7.1-1.3.2-1.9.3v-.1c0-1.9 1.6-3.5 3.7-3.5s3.7 1.6 3.7 3.5v.1c-.7-.1-1.3-.2-2-.3z" class="st10"></path><circle r="6.9" stroke-miterlimit="10" stroke-linejoin="round" stroke-linecap="round" stroke="#25282f" fill="#fcc2bc" cy="114.1" cx="411.4"></circle><path d="M402.4 82.4c-17.5 6.8-29.9 23.8-29.9 43.7 0 6.5 1.3 12.6 3.7 18.2M465.2 97c6.4 8 10.2 18.1 10.2 29.1 0 6.5-1.3 12.6-3.7 18.2" class="st16"></path><path d="M237.3 84.7c.8 0 1.4.6 1.4 1.4s-.6 1.4-1.4 1.4c-.8 0-1.4-.6-1.4-1.4s.6-1.4 1.4-1.4z" class="st1"></path><path d="M238.7 86.2c0 .8-.6 1.4-1.4 1.4-.8 0-1.4-.6-1.4-1.4s.6-1.4 1.4-1.4c.7-.1 1.4.6 1.4 1.4z" class="st13"></path></svg>