<svg xml:space="preserve" y="0" x="0" viewBox="0 0 427.1 341.6" xmlns:xlink="http://www.w3.org/1999/xlink" xmlns="http://www.w3.org/2000/svg" id="ss3" version="1.1"><style> #ss3 .st0 { fill: #fff; } #ss3 .st1 { fill: #2a2c32; } #ss3 .st2 { fill: #0ba3ad; } #ss3 .st3 { fill: #f9c9c4; } #ss3 .st4 { fill: none; stroke-linecap: round; stroke-linejoin: round; } #ss3 .st20, #ss3 .st4, #ss3 .st6 { stroke: #2a2c32; stroke-width: 0.8; } #ss3 .st6 { fill: none; stroke-miterlimit: 10; } #ss3 .st20 { fill: #2a2c32; stroke-linecap: round; stroke-linejoin: round; } #ss3 .st22 { fill: #eee; } #ss3 .st23 { fill: none; stroke: #eee; stroke-width: 0.8; stroke-miterlimit: 10; } #ss3 .st24 { fill: #f9c9c4; } #ss3 .st24, #ss3 .st26, #ss3 .st27 { stroke: #2a2c32; stroke-width: 0.8; } #ss3 .st26 { fill: #0ba3ad; stroke-miterlimit: 10; } #ss3 .st27 { fill: none; stroke-linecap: round; stroke-linejoin: round; } #ss3 .st27, #ss3 .st28 { stroke-miterlimit: 10; } #ss3 .st28, #ss3 .st29 { fill: none; stroke: #eee; stroke-width: 0.8; stroke-linecap: round; stroke-linejoin: round; } </style><path d="M103.7 340.6H11.2c-4.9 0-3.8-14.4 13.4-9.3-12.3-12.3-22-32 17.4-11.8-38-30.1-22.2-46.6 9.6-15.5-15.2-24.8 0-28.6 24 4.3s28.1 32.3 28.1 32.3zM132.5 340.6h286.4c15 0 11.7-41.8-41.6-26.9 49.4-32.1 68.3-82.9-66-29.1 137.4-95.8 91.2-147.5-7.3-57.1 47.2-71.9-10.1-76-84.4 19.5s-87.1 93.6-87.1 93.6z" class="st20"></path><clipPath id="SVGID_00000060004851843390808160000007415569610760964538_"><path d="M336.3 340.6h-299L-27.2-25.3h298.9z"></path></clipPath><g clip-path="url(#SVGID_00000060004851843390808160000007415569610760964538_)"><g id="XMLID_00000075125328580618002200000016112312624887106741_"><path d="M34.8 8.1c1.1-1.2 2.4-2.2 3.8-3.1.8-.6 1.7-1.1 2.6-1.5C44.8 1.7 48.9.7 53.5.7h144c17.8 0 35 14.6 38.1 32.4l39.2 222.1 18.8 106.4.4 2.3 7.7 43.5c2.5 14.2-5.1 26.3-17.6 29.8-.9-2.7-1.8-5.4-2.9-8.2h2.6c6.9 0 11.5-5.6 10.3-12.5l-67.9-385C224 19.7 212.5 10 200.5 10H55.2c-12 0-20 9.7-17.9 21.8l67.9 385c.5 3 2.1 5.8 4.2 7.9l-5.4 1.7c-4.9-5.2-8.5-11.7-9.7-18.8l-56.8-322L28 31.7c-.1-.6-.2-1.1-.2-1.6-.8-5.8.2-11 2.3-15.5.4-.9.9-1.7 1.5-2.6.9-1.4 2-2.7 3.2-3.9z" class="st1"></path><path d="m226.1 31.8 67.9 385c1.2 6.9-3.4 12.5-10.3 12.5H119.8c-3.9 0-7.6-1.8-10.4-4.5-2.2-2.1-3.7-4.9-4.2-7.9l-67.9-385C35.2 19.7 43.2 10 55.2 10h25.7c-.9 0-1.4.8-1.2 1.7l2 6.7c2 6.7 8 11.7 14.1 11.7h71.1c6.1 0 10.3-5 10-11.7l-.3-6.7c-.1-.9-.9-1.7-1.8-1.7h25.7c12 0 23.5 9.7 25.6 21.8z" class="st0"></path><path d="M174.8 10c.9 0 1.7.8 1.8 1.7l.3 6.7c.4 6.7-3.9 11.7-10 11.7H95.8c-6.1 0-12.1-5-14.1-11.7l-2-6.7c-.2-.9.3-1.7 1.2-1.7h93.9zm-9.4 6.3c-.5-3-3.4-5.4-6.3-5.4s-5 2.4-4.4 5.4c.5 3 3.4 5.4 6.3 5.4s4.9-2.4 4.4-5.4zM43.2.7h10.3c-4.5 0-8.7 1-12.3 2.8-.9.5-1.8 1-2.6 1.5H27.9C32.1 2.3 37.4.7 43.2.7z" class="st1"></path><path d="M38.5 5c-1.4.9-2.6 1.9-3.8 3.1H24c1.2-1.2 2.5-2.2 3.9-3.1h10.6z" class="st22"></path><path d="M24 8.1h10.8c-1.2 1.2-2.3 2.5-3.2 4h-11c1-1.5 2.1-2.8 3.4-4z" class="st1"></path><path d="M31.6 12c-.5.9-1 1.7-1.4 2.6l-.3-.2H19.2c.4-.8.9-1.6 1.4-2.4h11z" class="st22"></path><path d="M30.1 14.6C28 19.1 27 24.3 27.7 30H16.1c-.5-5.8.6-11.1 3.1-15.6h10.6l.3.2zM27.7 30c.1.5.1 1.1.2 1.6l9.5 53.9h-2.9L31.7 69c-.3-1.6-1.9-3-3.5-3s-2.8 1.3-2.5 3l2.9 16.6h-2.9l-9.2-52.4c-.2-1.1-.3-2.1-.4-3.1h11.6V30zM37.5 85.6l56.8 322H82.6l-.3-1.5L25.7 85.6h2.9c.3 1.6 1.9 3 3.5 3s2.7-1.4 2.5-3h2.9zM55.1 202l-6.7-37.8c-.3-1.6-1.9-3-3.5-3s-2.8 1.4-2.5 3l6.7 37.8c.3 1.6 1.9 3 3.5 3 1.7 0 2.8-1.4 2.5-3zM46 150.1l-6.7-37.7c-.3-1.7-1.9-3-3.5-3s-2.8 1.3-2.5 3l6.7 37.7c.3 1.6 1.9 3 3.5 3s2.8-1.3 2.5-3z" class="st1"></path><path d="m48.5 164.2 6.7 37.8c.3 1.6-.8 3-2.5 3-1.6 0-3.3-1.3-3.5-3l-6.7-37.8c-.3-1.6.8-3 2.5-3 1.6 0 3.2 1.4 3.5 3zM39.3 112.4l6.7 37.7c.3 1.6-.8 3-2.5 3s-3.3-1.4-3.5-3l-6.7-37.7c-.3-1.7.8-3 2.5-3s3.2 1.3 3.5 3zM31.7 69l2.9 16.6c.3 1.6-.8 3-2.5 3-1.6 0-3.3-1.4-3.5-3L25.7 69c-.3-1.6.8-3 2.5-3 1.6 0 3.2 1.3 3.5 3z" class="st1"></path><g><path d="M18.5 14.4H29.8M19.8 12h11.8M34.8 8.1h.1" class="st23"></path><path d="M23 8.1h11.8M26.8 5h11.7" class="st6"></path><path d="M117.6 435.8c-5.1-2.1-9.8-5.4-13.6-9.5-4.9-5.2-8.5-11.7-9.7-18.8l-56.8-322L28 31.7c-.1-.6-.2-1.1-.2-1.6-.8-5.8.2-11 2.3-15.5.4-.9.9-1.7 1.5-2.6.9-1.4 2-2.8 3.2-4 1.1-1.2 2.4-2.2 3.8-3.1.8-.6 1.7-1.1 2.6-1.5" class="st23"></path><path d="M41.2 3.5C44.8 1.7 48.9.7 53.5.7h144c17.8 0 35 14.6 38.1 32.4l39.2 222.1" class="st6"></path><path d="M27.7 30H15.9" class="st23"></path><path d="m25.7 85.6 56.5 320.5.3 1.5" class="st4"></path><path d="M53.5.7H43.2c-5.8 0-11 1.5-15.3 4.3-1.4.9-2.7 1.9-3.9 3.1-1.2 1.2-2.4 2.5-3.4 3.9-.5.7-1 1.5-1.4 2.4-2.4 4.5-3.5 9.8-3.1 15.6.1 1 .2 2.1.4 3.1l9.2 52.4" class="st6"></path><path d="M174.8 10h25.7c12 0 23.5 9.7 25.6 21.8l67.9 385c1.2 6.9-3.4 12.5-10.3 12.5H119.8c-3.9 0-7.6-1.8-10.4-4.5-2.2-2.1-3.7-4.9-4.2-7.9l-67.9-385C35.2 19.7 43.2 10 55.2 10h25.7" class="st6"></path><path d="M165.4 16.3c.5 3-1.5 5.4-4.4 5.4s-5.8-2.4-6.3-5.4c-.5-3 1.5-5.4 4.4-5.4s5.8 2.4 6.3 5.4z" class="st6"></path><path d="M34.6 85.6c.3 1.6-.8 3-2.5 3-1.6 0-3.3-1.4-3.5-3L25.7 69c-.3-1.6.8-3 2.5-3 1.6 0 3.2 1.3 3.5 3l2.9 16.6zM43.5 153.1c-1.6 0-3.3-1.4-3.5-3l-6.7-37.7c-.3-1.7.8-3 2.5-3s3.2 1.3 3.5 3l6.7 37.7c.3 1.7-.8 3-2.5 3zM52.7 205c-1.6 0-3.3-1.3-3.5-3l-6.7-37.8c-.3-1.6.8-3 2.5-3 1.6 0 3.2 1.4 3.5 3l6.7 37.8c.2 1.6-.9 3-2.5 3z" class="st23"></path><path d="m274.8 255.3 18.7 106.4" class="st4"></path></g></g></g><path d="m97.3 211.2 5.4 8c.2.2.4.4.7.4l9.1 1.3c.7.1 1.1.9.7 1.3l-5.3 6.2c-.2.2-.2.4-.1.7l3.1 8.8c.2.6-.4 1.1-1 .8l-8.7-4.2c-.3-.1-.5-.1-.7 0l-7.2 4.2c-.5.3-1.3-.2-1.3-.8v-8.8c0-.3-.1-.5-.3-.7l-7.5-6.2c-.5-.5-.4-1.2.2-1.3l8.6-1.3c.2 0 .4-.2.5-.4l2.5-8c0-.6.9-.6 1.3 0zM130.7 211.2l5.4 8c.2.2.4.4.7.4l9.1 1.3c.7.1 1.1.9.7 1.3l-5.3 6.2c-.2.2-.2.4-.1.7l3.1 8.8c.2.6-.4 1.1-1 .8l-8.7-4.2c-.3-.1-.5-.1-.7 0l-7.2 4.2c-.5.3-1.3-.2-1.3-.8v-8.8c0-.3-.1-.5-.3-.7l-7.5-6.2c-.5-.5-.4-1.2.2-1.3l8.6-1.3c.2 0 .4-.2.5-.4l2.5-8c.1-.6.9-.6 1.3 0zM164.1 211.2l5.4 8c.2.2.4.4.7.4l9.1 1.3c.7.1 1.1.9.7 1.3l-5.3 6.2c-.2.2-.2.4-.1.7l3.1 8.8c.2.6-.4 1.1-1 .8l-8.7-4.2c-.3-.1-.5-.1-.7 0l-7.2 4.2c-.5.3-1.3-.2-1.3-.8v-8.8c0-.3-.1-.5-.3-.7l-7.5-6.2c-.5-.5-.4-1.2.2-1.3l8.6-1.3c.2 0 .4-.2.5-.4l2.5-8c.1-.6.9-.6 1.3 0zM197.5 211.2l5.4 8c.2.2.4.4.7.4l9.1 1.3c.7.1 1.1.9.7 1.3l-5.3 6.2c-.2.2-.2.4-.1.7l3.1 8.8c.2.6-.4 1.1-1 .8l-8.7-4.2c-.3-.1-.5-.1-.7 0l-7.2 4.2c-.5.3-1.3-.2-1.3-.8v-8.8c0-.3-.1-.5-.3-.7l-7.5-6.2c-.5-.5-.4-1.2.2-1.3l8.6-1.3c.2 0 .4-.2.5-.4l2.5-8c.1-.6.9-.6 1.3 0z" class="st24"></path><g id="XMLID_00000119802048616191923980000002428716710160149905_"><path d="M245.7 220.9c.7.1 1.1.9.7 1.3l-5.3 6.2c-.2.2-.2.4-.1.7l3.1 8.8c.2.6-.4 1.1-1 .8l-8.7-4.2c-.1-.1-.3-.1-.4-.1l-4.2-23.9c.3 0 .6.2.8.4l5.4 8c.2.2.4.4.7.4l9 1.6z" class="st0"></path><path d="m229.8 210.8 4.2 23.9c-.1 0-.2 0-.3.1l-7.2 4.2c-.5.3-1.3-.2-1.3-.8v-8.8c0-.2-.1-.5-.3-.7l-7.5-6.2c-.6-.5-.4-1.3.2-1.3l8.6-1.3c.2 0 .4-.2.5-.4l2.6-8c0-.6.2-.7.5-.7z" class="st3"></path><g><path d="M229.8 210.8c.3 0 .6.2.8.4l5.4 8c.2.2.4.4.7.4l9.1 1.3c.7.1 1.1.9.7 1.3l-5.3 6.2c-.2.2-.2.4-.1.7l3.1 8.8c.2.6-.4 1.1-1 .8l-8.7-4.2c-.1-.1-.3-.1-.4-.1-.1 0-.2 0-.3.1l-7.2 4.2c-.5.3-1.3-.2-1.3-.8v-8.8c0-.2-.1-.5-.3-.7l-7.5-6.2c-.6-.5-.4-1.3.2-1.3l8.6-1.3c.2 0 .4-.2.5-.4l2.6-8c-.1-.3.1-.4.4-.4z" class="st6"></path><path d="m229.8 210.8 4.2 23.8v.1" class="st6"></path></g></g><path d="M93.7 253.7h128.9M96.8 271.1h97.5M99.9 288.5h128.8M102.9 305.9h97.6" class="st6"></path><defs><path d="M214.8 42.1H51.9l25.9 146.6h162.9z"></path></defs><clipPath id="XMLID_00000136381501794680379220000003180063496549061293_"><path d="M214.8 42.1H51.9l25.9 146.6h162.9z"></path></clipPath><g clip-path="url(#XMLID_00000136381501794680379220000003180063496549061293_)"><g id="XMLID_00000057827639931232761830000015291258737447498153_"><path d="M176.4 78.1c1.5 1.9 1.5 4.2.2 5.1s-3.7 0-5.1-1.9c-1.5-1.9-1.5-4.2-.2-5.1 1.4-.9 3.7 0 5.1 1.9z" class="st1"></path><path d="M168.2 76.3c-1.9 1.2-1.7 4.4.3 7 2 2.7 5.2 3.9 7.1 2.6l-6.7 4.5-.2.1s1.5 6 .1 8.6c-.9-.5-1.8-.8-2.8-.8-.5-3.7-.6-5.6-.6-5.6s-4.5-4.3-5.8-11.7c-7.3-1.4-11.2-4.6-11.2-4.6s-4.7 5.2-25.9 3.4c1.4 9.1-3.1 12.9-3.1 12.9s.6 1.9 1.4 5.6c-1 0-1.9.3-2.6.8-2.4-2.7-2.9-8.6-2.9-8.6l-.3-.1-8.3-4.5c2.3 1.2 5.1 0 6.2-2.6 1.1-2.6.1-5.8-2.2-7h-.1l-2.5-1.4c-.3-.2-.7-.3-1.1-.4l-.4-1.4c-1.8-1.5-2.8-3.4-2.3-4.8l3.9-10.5c-.6 1.8 1.3 4.5 4.2 6 2.9 1.4 5.7 1.2 6.4-.4l.1-.2.7-2c.2-.6.1-1.3-.1-2 0 0 1.6-1.3 3.9-1.8.6.8 1.3 1.3 1.9 1.2H147.6c.6 0 1.1-.6 1.4-1.5 1.5.4 3.6 1.1 4.6 2.1 0 .7.1 1.4.6 2.1l1.4 2c1.3 1.8 4.3 2.1 6.7.6 2.4-1.5 3.4-4.2 2.1-6l7.6 10.5c1 1.4.7 3.3-.6 4.8v1.4c-.3.1-.6.2-.9.4l-2.3 1.3z" class="st1"></path><path d="M161.6 56.6c.9 1.3.2 3.3-1.5 4.4-1.8 1.1-3.9.9-4.9-.5-.9-1.3-.2-3.3 1.5-4.3 1.7-1.2 3.9-1 4.9.4zM163 179.4c-2-1.2-4-3-5.5-4.9-.5-.6-1-1.3-1.4-2v-1.8c.8 3.1 3.1 7.9 9.2 7.9 9.1 0 8-10.3 8-10.3h.1s.6.3 1.7.8c-.2 12.7-6.5 13.6-12.1 10.3zM163.1 136.1l2 6.1-18.3-2.8c1.4.2 2.7.3 3.8.3 3.6.1 8.6-.7 12.5-3.6zM145.7 52.8c.6 3.1 0 5.7-1.4 5.8h-16.1c1.4-.1 2.1-2.7 1.4-5.8-.6-3-2.1-5.3-3.5-5.4h16.1c1.4.1 2.9 2.4 3.5 5.4z" class="st1"></path><path d="M157.4 174.5c-.5 3-1.6 4.8-3 5.8l-.4-2.4-.8-.1c2-1.1 2.7-3.3 2.8-5.2.4.6.9 1.2 1.4 1.9z" class="st1"></path><path d="M152.4 181c-2.9.3-6.5-1.8-9.3-4.6 1.6 1.3 3.7 2.2 6.4 2.2 1.6 0 2.8-.3 3.7-.8l.8.1.4 2.4c-.6.4-1.3.6-2 .7zM125.9 52.9c.4 2.2 0 4.1-1 4.2-1 .1-2.2-1.7-2.7-3.9s0-4.1 1-4.2c1 0 2.2 1.7 2.7 3.9zM114.9 56.1c2.1 1.1 3.5 3 3.1 4.3-.5 1.3-2.6 1.5-4.7.5-2.1-1.1-3.5-3-3.1-4.4.4-1.3 2.5-1.5 4.7-.4zM107.3 76.2c1.7.9 2.4 3.2 1.7 5.1-.8 1.9-2.8 2.8-4.5 1.9s-2.4-3.2-1.7-5.1c.9-1.9 2.8-2.8 4.5-1.9z" class="st1"></path><g><path d="M122.5 108.5c-2.8 0-5.5-2.2-6-5-.3-1.8.3-3.4 1.5-4.3.7-.5 1.6-.8 2.6-.8M137.3 98.3c-1.8-1.6-5.6-1.7-7.4-1l-1.6-1.3" class="st6"></path><path d="M150.6 139.8c3.6 0 8.6-.8 12.5-3.6 4.9-3.5 8.2-10.1 5.5-22.3-.4-1.9-.8-3.7-1.1-5.3-.8-4.2-1.3-7.6-1.7-10.2-.5-3.7-.6-5.6-.6-5.6s-4.5-4.3-5.8-11.7c-7.3-1.4-11.2-4.6-11.2-4.6s-4.7 5.2-25.9 3.4c1.4 9.1-3.1 12.9-3.1 12.9s.6 1.9 1.4 5.6c.6 2.6 1.2 6 1.9 10.2.3 1.7.5 3.4.8 5.3 1.6 12.2 7.4 18.9 13.5 22.4 3.4 1.9 6.9 2.9 9.9 3.3 1.4.1 2.7.2 3.9.2" class="st6"></path><path d="M167.5 108.5c2.8 0 4.7-2.2 4.3-5-.3-1.8-1.5-3.4-3.1-4.3-.9-.5-1.8-.8-2.8-.8M149.2 98.3c1.2-1.6 5-1.7 7-1l1.2-1.3M148 89.7l11.8 1.3M126.4 88.4l10.6-1.2M144.7 96.7l4.9 9.2c.7 1.3.2 2.7-1 3l-2.1.6M147.6 117.3c2.5.4 6.1-.6 6.4-3.5M244.2 208.4l-5.5-11.8c-3.4-7.2-11.5-13-21.1-14.9-7.5-1.5-15.9-3.2-20.6-4.4-7.8-1.9-18-6.4-22-8.3-1.1-.5-1.7-.8-1.7-.8l-4.2-13.2-4.1-12.8-2-6.1M136.8 136.1l.6 19 .5 13.2s-11.4 6.6-20.5 9c-4.3 1.2-12.1 2.9-19 4.4-8.9 1.9-15 7.7-15.8 14.9l-1.4 11.8M137.6 155.1c4.3 6.1 11.7 10.7 17.9 13 0 0 .3 1.1.5 2.6 0 .6.1 1.2 0 1.8-.1 2-.8 4.1-2.8 5.2-.9.5-2.1.8-3.7.8-2.7 0-4.8-.9-6.4-2.2-3.9-3-5.2-8.1-5.2-8.1M154 177.8l.5 2.4 4.9 28.2M152 178.5l.4 2.5 4.8 27.4" class="st6"></path><path d="M168.9 155.1c-2.1 6.1-7.9 10.7-13.4 13 0 0 .1 1.1.5 2.6.8 3.1 3.1 7.9 9.2 7.9 9.1 0 8-10.3 8-10.3M160.5 177.8l5.4 30.6" class="st6"></path><path d="m162.8 178.5.2.9 5.1 29" class="st6"></path><ellipse ry="1.8" rx="1.5" cy="180.3" cx="157.7" class="st6" transform="rotate(-47.521 157.744 180.264)"></ellipse><ellipse ry="1.8" rx="1.5" cy="195" cx="160.3" class="st6" transform="rotate(-47.521 160.34 194.987)"></ellipse><path d="m146.7 139.5 18.4 2.8M126.7 138.1l.1 1 .2 1M127.8 139.1h-1.9M185.6 160.8l.2 1 .2 1M186.8 161.8h-1.9M200.3 143l.3 2 .4 2M202.5 145h-3.8M90.8 120.5l.6 3.1.5 3.2M94.4 123.6h-6.1M101.9 131.6l.3 1.8.3 1.8M104 133.4h-3.5M90.7 176.8l.3 1.8.4 1.8M92.8 178.6h-3.5M109 81.3c-.8 1.9-2.8 2.8-4.5 1.9s-2.4-3.2-1.7-5.1c.8-1.9 2.8-2.8 4.5-1.9 1.7.9 2.5 3.2 1.7 5.1z" class="st6"></path><path d="M107.9 74.9c2.3 1.2 3.4 4.4 2.3 7.1-1.1 2.7-3.8 3.9-6.2 2.6-2.3-1.2-3.4-4.4-2.3-7.1.9-2.3 3-3.5 5.1-3 .4 0 .7.2 1.1.4z" class="st6"></path><path d="M110.5 76.3c2.3 1.3 3.3 4.4 2.2 7-1.1 2.7-3.8 3.9-6.2 2.6M104 84.6l2.5 1.4 8.3 4.5.3.1s.6 6 2.9 8.6" class="st6"></path><path d="M115.1 90.6c.1 2.6-.9 4-2.6 4.3" class="st6"></path><path d="M114.8 90.4c-.1 1.5-1.2 2.1-1.2 2.1M107.9 74.9l2.5 1.3.1.1 8.5 4.6M113.2 60.9c-2.1-1.1-3.5-3-3.1-4.4.5-1.3 2.6-1.5 4.7-.4s3.5 3 3.1 4.3c-.4 1.4-2.5 1.6-4.7.5z" class="st6"></path><path d="M119.4 61.2c-.6 1.8-3.5 2.1-6.5.6s-4.9-4.2-4.2-6c.6-1.8 3.5-2.1 6.5-.6 2 1 3.5 2.5 4.1 4 .3.7.3 1.4.1 2z" class="st6"></path><path d="M118.6 63.4c-.8 1.7-3.6 1.9-6.4.4-3-1.5-4.9-4.2-4.2-6M114.8 73.7c-.6 1.8-3.6 2.1-6.5.6-.7-.4-1.4-.8-1.9-1.3-1.8-1.5-2.8-3.4-2.3-4.8" class="st6"></path><path d="m108.7 55.8-.7 2-3.9 10.5M119.4 61.2l-.7 2-.1.2-2.4 6.5M125.9 52.9c.4 2.2 0 4.1-1 4.2-1 .1-2.2-1.7-2.7-3.9s0-4.1 1-4.2c1 0 2.2 1.7 2.7 3.9z" class="st6"></path><path d="M123 47.4c1.4.1 2.9 2.4 3.5 5.4.6 3.1 0 5.7-1.4 5.8-.6 0-1.3-.4-1.9-1.2-.8-1-1.4-2.5-1.7-4.2-.6-3.1 0-5.7 1.4-5.8h.1zM126 47.4h.2c1.4.1 2.9 2.4 3.5 5.4.6 3.1 0 5.7-1.4 5.8M142.1 47.4h.2c1.4.1 2.9 2.4 3.5 5.4.6 3.1 0 5.7-1.4 5.8" class="st6"></path><path d="M122.9 47.4H145.2c1.4-.1 3.1 2.3 3.7 5.4.3 1.7.3 3.2 0 4.3-.3.9-.8 1.5-1.4 1.5H125.2M106.4 73.1l.4 1.4M171.5 81.3c1.5 1.9 3.8 2.8 5.1 1.9s1.3-3.2-.2-5.1c-1.5-1.9-3.8-2.8-5.1-1.9-1.4.9-1.3 3.2.2 5.1z" class="st6"></path><path d="M170.3 74.9c-1.9 1.2-1.8 4.4.2 7.1 2 2.7 5.2 3.9 7.1 2.6 1.9-1.2 1.8-4.4-.2-7.1-1.7-2.3-4.3-3.5-6.2-3-.3 0-.6.2-.9.4z" class="st6"></path><path d="M168.2 76.3c-1.9 1.2-1.7 4.4.3 7 2 2.7 5.2 3.9 7.1 2.6M177.6 84.6l-2.1 1.4-6.7 4.5-.2.1s1.5 6 .1 8.6" class="st6"></path><path d="M168.7 90.6c.8 2.6 2.4 4 4.1 4.3" class="st6"></path><path d="M168.8 90.4c.6 1.5 1.9 2.1 1.9 2.1M170.3 74.9l-2.1 1.3v.1l-6.9 4.6M160 60.9c1.8-1.1 2.5-3 1.5-4.4-.9-1.3-3.1-1.5-4.9-.4-1.8 1.1-2.4 3-1.5 4.3 1 1.4 3.2 1.6 4.9.5z" class="st6"></path><path d="M153.9 61.2c1.3 1.8 4.3 2.1 6.7.6 2.4-1.5 3.4-4.2 2.1-6-1.3-1.8-4.3-2.1-6.7-.6-1.6 1-2.6 2.5-2.7 4 0 .7.2 1.4.6 2z" class="st6"></path><path d="M155.4 63.2c1.3 1.8 4.3 2.1 6.7.6 2.4-1.5 3.4-4.2 2.1-6M163 73.7c1.3 1.8 4.3 2.1 6.7.6.6-.4 1.1-.8 1.5-1.3 1.3-1.5 1.6-3.4.6-4.8" class="st6"></path><path d="m162.8 55.8 1.4 2 7.6 10.5M153.9 61.2l1.5 2 4.8 6.7M171.2 73.1v1.4M123.2 57.4c-2.3.6-3.9 1.8-3.9 1.8M148.8 57.1c1.5.4 3.6 1.1 4.6 2.1" class="st6"></path></g></g><g id="XMLID_00000145031850716001578770000012458354209873675950_"><path d="M196.6 89.8c1 3.2 1.8 6.5 2.4 9.8-2.1-11.7-13.2-22-28.6-28.2-9.7-3.9-21.1-6.2-32.9-6.2-11.8 0-22.4 2.3-30.7 6.2C93.5 77.6 85.9 87.9 88 99.6c-.6-3.3-.9-6.6-1.1-9.8.6-9.3 7.5-17.4 18.3-22.7 8.4-4.1 19.2-6.5 31.4-6.5 12 0 23.5 2.4 33.3 6.4 12.9 5.2 22.7 13.4 26.7 22.8zM139.4 22.4l2.4 13.7c-2.6-.5-5.2-.8-7.9-.9l-.2-1.3c.4 0 .7 0 1.1.1.4 0 .9.1 1.3.1.9.1 1.8.2 2.8.3l-2.1-11.9h2.6z" class="st1"></path><path d="m134.1 22.4 2 11.6c-.4 0-.9-.1-1.3-.1l-2-11.5h1.3zM133.8 33.9l.2 1.3h-1.9c-3.2 0-6.3.3-9.3.9l-2.4-13.7h11.3l2.1 11.5z" class="st1"></path><g><path d="M170.3 71.3c15.4 6.2 26.6 16.6 28.6 28.2 2.7 15.2-10.9 28.1-32.1 32.7" class="st6"></path><path d="M106.7 71.3c8.3-3.9 18.9-6.2 30.7-6.2s23.2 2.3 32.9 6.2" class="st23"></path><path d="M131.6 132.3c-22.8-4.6-41-17.5-43.7-32.7-2.1-11.7 5.5-22 18.7-28.2M169.9 66.9c12.9 5.3 22.7 13.4 26.7 22.8" class="st6"></path><path d="M105.2 67.1c8.4-4.1 19.2-6.5 31.4-6.5 12 0 23.5 2.4 33.3 6.4" class="st23"></path><path d="M104.5 63c8.4-4.1 19.2-6.5 31.4-6.5 12 0 23.5 2.4 33.3 6.4" class="st23"></path><path d="M103.5 57.5c8.4-4.1 19.2-6.5 31.4-6.5 12 0 23.5 2.4 33.3 6.4" class="st23"></path><path d="M86.9 89.8c.6-9.3 7.5-17.4 18.3-22.7M188.5 115.2c-3.8 4.8-9.7 8.8-17.2 11.4M192.1 97.2c.2.8.4 1.6.6 2.3.7 3.8.2 7.4-1.2 10.7M167.6 74.7c11.1 4.6 19.7 11.6 23.4 19.6" class="st6"></path><path d="M110.6 74.7c7.4-3.5 16.9-5.6 27.5-5.6 10.6 0 20.8 2.1 29.5 5.6" class="st23"></path><path d="M105.7 116.6c-6.1-4.9-10.2-10.7-11.4-17-1.8-10.3 4.8-19.4 16.3-24.9M125.8 126.7c-6.3-1.9-12-4.5-16.7-7.7" class="st6"></path><path d="M88 99.6c-.6-3.3-.9-6.6-1.1-9.8-1.2-27.3 13.3-49 35.9-53.7 3-.6 6.1-.9 9.3-.9h1.9c2.6.1 5.3.4 7.9.9 24.2 4.7 46.4 26.4 54.8 53.7 1 3.2 1.8 6.5 2.4 9.8" class="st6"></path><path d="M129.2 33.9c.9 0 1.8-.1 2.7-.1h1.9c.4 0 .7 0 1.1.1.4 0 .9.1 1.3.1.9.1 1.8.2 2.8.3l-2.1-11.9M124.3 34.5c.9-.1 1.7-.3 2.6-.4" class="st23"></path><path d="M97.9 60c.8-1.4 1.6-2.7 2.5-4M92.5 75c.9-4.6 2.4-8.9 4.3-12.8M173.3 58.1c4.4 4.5 8.3 9.7 11.6 15.3M139.4 39.7c10.7 1.6 21.1 6.8 29.9 14.7M115.7 43c5.1-2.4 10.9-3.7 17.1-3.7.8 0 1.5 0 2.3.1M110 47.5c-2.2 1.6-3.6 3.1-4.2 2.4-.5-.7 0-3.3 2.2-4.9 2.2-1.6 5-1.4 5.5-.7.6.7-1.3 1.6-3.5 3.2zM103.9 52.2c-.6.8-1 1.5-1.2 1.3-.2-.2-.3-1.2.3-2s1.6-1 1.8-.8c.3.2-.3.7-.9 1.5z" class="st6"></path><path d="m134.1 22.4 2 11.6M132.8 22.4l2.1 11.5M131.8 22.5l2 11.4" class="st23"></path><path d="m141.8 36.1-2.4-13.7h-19l2.4 13.7" class="st6"></path></g></g><path d="M110.2 86.6c.7.5 1.4 1.1 2.2 1.5.2.1.6.3.7.1.2-.2 0-.5-.2-.7s-.5-.5-.4-.7c.1-.2.4-.3.6-.2s.4.4.6.6c1 1.2 2.2 2.2 3.6 3M172 86.7c-.6 1-1.8 1.6-3.1 1.5-.2-.1-.2-.3-.2-.5.1-.1.3-.2.4-.3.1-.1.3-.2.2-.4 0-.2-.2-.3-.3-.3h-.5c-.7.2-1.1.7-1.6 1.1s-1.1.9-1.8.7M113.8 77.3c1.4 1 3 1.6 4.6 1.7M165.3 76.8c-1 1.1-2 2.2-3.6 2.5" class="st23"></path></g><path stroke-miterlimit="10" stroke-width=".8" stroke="#2a2c32" fill="none" overflow="visible" d="M214.8 42.1H51.9l25.9 146.6h162.9z"></path><path d="m54.4 23-4.3 4.8 6.1 4.9M.3 340.6h416.9" class="st6"></path><path d="M90.3 340.6c-9-27.9-34-38.5-29.8-8.9.1.7-.7 1.1-1.2.6-11.8-12.6-16.7-9.7-11 8.3h42z" class="st26"></path><path d="M87.8 340.6c4.2-11.2 9.3-14.1 9.5-4.5 0 .4.5.5.7.1 5.5-11.4 14.8-16.2 6.2 4.4H87.8" class="st26"></path><path d="M299.2 340.6h5c.7 0 1.2-.5 1.2-1.1v-2.7c0-.6-.6-1.1-1.3-1.1l-1.9.1-5.3.4-17.9 1.4c-.6.1-1.1.5-1.1 1.1v.7c0 .6.5 1.1 1.2 1.1h20.1z" class="st22"></path><path d="m288.5 330.9-9.5 6.7 17.9-1.4c0-3 3.8-4 5.5-4l.3-4h-10.3l-3.9 2.7z" class="st3"></path><path d="M285.5 310.3h19.2v-.4c-.5-2.2-1-4.4-1.9-6.5-.1-.3-.3-.6-.4-.9-1.2-2.3-3.1-4.3-5.5-5.2-1.7-.6-3.6-.5-5.5-.5-1.1 0-2.2.1-3.3.1-1.7 8.3-2.6 13.4-2.6 13.4z" class="st2"></path><path d="M288 296.9c1.1 0 2.2-.1 3.3-.1 1.8-.1 3.7-.1 5.5.5 2.4.8 4.3 2.9 5.5 5.2.1.3.3.6.4.9l3.1-1c-1.7-3.3-2.5-7-2.1-10.7.6-5.6 3.7-10.6 5.1-16 .9-3.6.9-7.9-1.8-10.4-1.7-1.6-4.1-2.2-6.4-2.1-2.2.1-4.3.7-6.4 1.4-2.4 12.5-4.6 24-6.2 32.3z" class="st2"></path><path d="m294.1 313.2-1.7 15h10.3l5.9-16.7z" class="st22"></path><path d="m294.5 310.3-.4 2.9 14.5-1.7.4-1.2h-4.8z" class="st1"></path><path d="M307.8 192.9c-.7 3.4.7 7.2 3.5 9.3 2.1 1.6 5 2.3 6.8 4.3 2.6 2.9 2.1 7.4.1 10.8-1.9 3.3-5 5.8-7.6 8.6-2.6 2.8-4.9 6.3-4.6 10.2.1 1.5.6 3 1.2 4.5 1.2 3 2.7 5.9 2 8.9-.7 2.6-3 4.5-5.6 5.4-2.4.8-5.1.9-7.6 1-.6 2.9-1.1 5.7-1.6 8.5 2.1-.7 4.2-1.3 6.4-1.4 2.3-.1 4.8.5 6.4 2.1 2.7 2.6 2.7 6.8 1.8 10.4-1.4 5.4-4.5 10.4-5.1 16-.4 3.7.4 7.4 2.1 10.7 1.4 2.7 3.4 5.1 5.9 6.8v1.2h2.6s-.3-4.7 2.1-8c2.3-3.4 4.3-6.4 5-10.7s2.4-12.1 3.4-16.6c.1-.3.1-.6.2-.9l-.4-.1c-1.4-5.3-7.2-8.3-9.3-13.3-2-4.8-.3-10.2 1.8-15 2.1-4.7 4.7-9.6 4.3-14.7-.2-2-.8-4-.6-6.1.3-2.8 2-5.2 4.2-6.9 2.2-1.7 5.4-3.3 8-4.4 0-3.4 0-7 .1-10.9 0-2.1.1-4.5.1-7.1-1.1-3.3-4.7-8.6-7.9-10.1-2.6-1.2-5.9-1.9-7.2-4.4-1.2-2.5.1-5.4.1-8.1 0-3.4-2.5-6.6-5.7-7.7-.1.1-.1.2-.2.3-.1.8-.2 1.5-.3 2.3-.3 2.1-2 11.8-4.4 25.1z" class="st2"></path><path d="M296.4 253c-.2 1-.4 1.9-.6 2.9 2.6 0 5.2-.1 7.6-1 2.5-.9 4.9-2.8 5.6-5.4.8-3-.8-5.9-2-8.9l-2.8.5c.6 1.7 1.1 3.4.6 5.1-.8 3.7-4.8 5.5-8.4 6.8z" class="st2"></path><path d="m297 336.2 5.3-.4v-.2l.2-3.4c-1.7 0-5.5 1.1-5.5 4z" class="st3"></path><path d="M300.6 231.2c-1.4 7.3-2.8 14.6-4.1 21.8 3.6-1.3 7.6-3.1 8.5-6.8.4-1.7 0-3.4-.6-5.1-1-2.7-2.7-5.3-2.7-8.1 0-.5 0-1.1.1-1.6l-1.2-.2z" class="st2"></path><path d="m300.6 231.2 1.1.2c.4-2 1.4-3.9 2.5-5.7 1.4-2.2 2.9-4.5 3.2-7.1.4-2.6-.8-5.6-3.3-6.4-1.1 6.1-2.3 12.5-3.5 19z" class="st2"></path><path d="M301.7 231.4c-.1.5-.1 1.1-.1 1.6.1 2.8 1.7 5.5 2.7 8.1l2.8-.5c-.6-1.5-1.1-2.9-1.2-4.5-.3-3.8 2-7.4 4.6-10.2 2.6-2.8 5.7-5.3 7.6-8.6 1.9-3.3 2.4-7.9-.1-10.8-1.8-2-4.6-2.7-6.8-4.3-2.8-2.1-4.2-5.9-3.5-9.3-1.1 5.8-2.3 12.3-3.6 19.2 2.5.8 3.6 3.9 3.3 6.4-.4 2.6-1.9 4.9-3.2 7.1-1.1 1.9-2.1 3.8-2.5 5.8zM305.8 302.3l-3.1 1c.9 2.1 1.4 4.3 1.9 6.5v.4h7.1V309c-2.5-1.6-4.5-4-5.9-6.7zM333.1 213.5v2.1c.1 6.4.5 11.9 1.3 17.1.3 1.5.7 5.2 1.2 10 .8 7.1 1.7 17 2.7 26.9 2.8.8 5.9-.7 7.7-3 1.9-2.3 2.6-5.3 3.1-8.3.5-3 .7-6 1.8-8.8 1.7-4.5 5.3-8.2 5.9-13 .4-3.1-.5-6.1-.5-9.2.2-5.4 2.2-7.6 6.4-11 4.2-3.4 8.4.3 13.5-1.7 1.8-7.3 4.6-16.7 5.9-26.9l-.6-.1c-4.7 1-7.1 6.1-8.5 10.6-1.4 4.6-2.7 9.7-6.7 12.2-4.9 3-11.7.3-14.9-4.4-3.2-4.8-3.4-10.9-2.6-16.6.8-5.7 2.4-11.3 2.5-17 .1-5.7-1.6-11.9-6.2-15.3-2.7-2.1-6.2-2.9-9.1-4.7-2.8-1.7-5.2-4.7-4.6-7.8h-5.3c-.9 0-1.8.1-2.6.4-1.3.4-2.5 1-3.4 1.9l.2.1c3.2 4 5.3 8.9 5.8 13.9.2 1.6.2 3.4-.6 4.8s-2.7 2.4-4.2 1.6c-1.1-.5-1.7-1.8-2-3-.3-1.2-.3-2.5-.9-3.6-.8-1.7-2.7-2.8-4.6-2.6-.7 2.3-1.1 4.7-1.5 7.2.1-.1.2-.2.2-.3 3.2 1 5.7 4.2 5.7 7.7 0 2.7-1.3 5.6-.1 8.1 1.3 2.6 4.6 3.2 7.2 4.4 3.2 1.5 6.8 6.8 7.9 10.1 0 2.6-.1 5.1-.1 7.1.1 4.2 0 7.8 0 11.1z" class="st2"></path><path d="M313.9 158.3c1.9-.2 3.8.9 4.6 2.6.6 1.1.6 2.4.9 3.6.3 1.2.8 2.5 2 3 1.5.7 3.3-.2 4.2-1.6.8-1.4.8-3.2.6-4.8-.5-5.1-2.6-10-5.8-13.9l-.2-.1-.2.2c-2.6 2.7-4.4 5.9-5.5 9.4-.3.5-.5 1-.6 1.6zM317.1 245.6c-2.1 4.7-3.9 10.2-1.8 15 2.1 5 7.9 8 9.3 13.3l.4.1c.5-1.7 1.1-2.7 1.7-3.7-1.7-1.9-3.2-4.2-3.8-6.7-.7-2.6-.5-5.5 1-7.8 1.5-2.2 4.4-3.6 7-2.9h.4c.8-2.4 1.9-5 2.8-6.9h-.1c-1.4-6.9-1.4-22.4-.8-30.5v-2.1c-2.6 1-5.8 2.7-8 4.4-2.2 1.7-4 4.2-4.2 6.9-.2 2 .4 4 .6 6.1.2 5.2-2.3 10.1-4.5 14.8z" class="st2"></path><path d="M323.9 255.9c-1.5 2.2-1.7 5.2-1 7.8.7 2.5 2.1 4.7 3.8 6.7.7-1.2 1.4-2.5 2.1-5 1.3-5 .8-7.5 2.5-12.3h-.4c-2.6-.8-5.5.6-7 2.8zM363.2 171.9c-.2-.2-.5-.4-.7-.6-2.1-1.8-3.6-3.8-4.6-5.9-1.8-3.6-2.2-7.3-2.3-10.6-1.7-.3-3.6-.4-5.1-1.4-2.7-1.7-3.4-5.5-3.1-8.7H331c-.5 3.1 1.9 6.1 4.6 7.8 2.9 1.8 6.4 2.7 9.1 4.7 4.6 3.5 6.3 9.6 6.2 15.3-.1 5.7-1.7 11.3-2.5 17-.7 5.7-.5 11.8 2.6 16.6 3.1 4.8 10 7.5 14.9 4.4 4-2.5 5.4-7.7 6.7-12.2 1.4-4.6 3.8-9.7 8.5-10.6l.6.1c.3-2.4.5-4.9.6-7.3h-.5c-3.3.5-6.4 2.2-8.6 4.7-1.4 1.6-2.5 3.6-4.2 5-1.7 1.4-4.3 2-6 .6-1.9-1.6-1.5-4.7-.2-6.9 1.4-2.4 3.5-4.4 6.1-5.5 2.2-1 4.7-1.4 6.8-2.6 2.7-1.5 4.7-4.2 5.3-7.2l.6-.1c-.1-.7-.2-1.5-.4-2.2l-15.5 2.6-2.5 3z" class="st2"></path><path d="M332.7 215.5c-.6 8.1-.6 23.6.8 30.5h.1c.9-2 1.6-3.4 1.6-3.4-.5-4.9-.9-8.5-1.2-10-.8-5.2-1.2-10.7-1.3-17.1z" class="st1"></path><path d="M338.3 269.6c.2 2.4.5 4.8.7 7.2 2.9 4.4 9.3 6 14 3.5 4.8-2.5 7.2-8.6 5.7-13.8-.5-1.6-1.3-3.2-1.6-4.9-.3-1.7 0-3.7 1.4-4.7 1.1-.9 2.8-.8 4.1-.2 1.3.6 2.3 1.8 3 3.1 1.3 2.2 1.8 4.9 1.6 7.5-.3 2.7-1.4 5.5-.6 8.1.9 2.8 4.2 4.5 7 3.7.7-6.2 1.3-11.5 1.5-13.6.4-6.6-3.1-8.2-3.3-14.3 0-1.2.1-2.3.3-3.2-.2-1.8-2.4-4.8-4-5.5-1.6-.7-3.4-1.1-4.8-2.1-2.3-1.8-3.1-5.1-2.3-7.9.8-2.8 3-5.1 5.5-6.6s5.3-2.4 8.2-3.2h.1c.2-2.2.7-4.9 1.5-7.9-5 2-9.2-1.7-13.5 1.7-4.3 3.4-6.3 5.6-6.4 11-.1 3.1.9 6.2.5 9.2-.6 4.7-4.3 8.5-5.9 13-1.1 2.8-1.3 5.8-1.8 8.8-.5 3-1.2 6-3.1 8.3-1.9 2.1-5 3.6-7.8 2.8z" class="st2"></path><path d="M339 276.8c1.7 17.5 3.1 33.5 3.1 33.5h9.9v-.4c4.2-2.5 6.8-7.4 6.7-12.3-.1-2.4-.7-4.7-.4-7.1.4-2.3 2.3-4.7 4.6-4.4 1.2.2 2.1 1 3 1.7 1.9 1.6 3.7 3.2 5.6 4.8h.3c.6-4.5 1.2-9.3 1.7-13.6-2.8.8-6.1-.9-7-3.7-.8-2.6.3-5.4.6-8.1.3-2.6-.3-5.2-1.6-7.5-.7-1.3-1.7-2.4-3-3.1-1.3-.6-3-.7-4.1.2-1.4 1-1.7 3-1.4 4.7.3 1.7 1.1 3.2 1.6 4.9 1.5 5.2-1 11.3-5.7 13.8-4.6 2.6-11 1-13.9-3.4zM355.6 154.8c2.3.3 4.5.9 6.8 1 2.3.1 4.6-.3 6.5-1.6 1.8-1.3 3-3.8 2.3-5.9l.1-.2c-.3-.2-.7-.5-1.1-.8-.7-.5-1.5-.9-2.4-1.2-.3-.1-.6-.3-1-.4l-.2.4c.4 1.8-.1 3.8-1.5 4.9-1.5 1.1-3.8.9-4.8-.6-.6-.8-.7-1.9-.9-2.9s-.5-2.1-1.4-2.6v-.2h-10.6c-.3 3.2.4 6.9 3.1 8.7 1.5.9 3.4 1.1 5.1 1.4z" class="st2"></path><path d="m348.2 310.3.4 2.6h.1l15.4-1.5h.3l.3-1.1h-13.1z" class="st1"></path><path d="M348.8 337.7c-1.7 0-1 2.8 0 2.8h8.5v-2.8h-8.5zM348.6 312.9l2.7 16.6v.2h9.4l3.7-18.3h-.3l-15.4 1.5z" class="st22"></path><path d="m351.3 329.7-2.5 8h16.7l-4.8-8h-9.4z" class="st3"></path><path d="M352 309.8v.4h17.7s1.1-8.2 2.2-17.6h-.3c-1.9-1.6-3.7-3.2-5.6-4.8-.9-.8-1.9-1.6-3-1.7-2.3-.3-4.3 2-4.6 4.4-.4 2.3.3 4.7.4 7.1 0 4.8-2.6 9.7-6.8 12.2zM355.6 154.8c0 3.3.5 7 2.3 10.6h.1l12.8-9-1.9-2.2c-1.8 1.3-4.2 1.7-6.5 1.6-2.3-.2-4.5-.7-6.8-1z" class="st2"></path><path d="M357.3 337.7v2.8h8.3c.9 0 1-2.8 0-2.8h-8.3z" class="st22"></path><path d="M358 144.7v.2c.9.6 1.2 1.6 1.4 2.6s.3 2.1.9 2.9c1 1.5 3.4 1.7 4.8.6s2-3.1 1.5-4.9l.2-.4c-1.8-.6-3.7-1-5.2-1H358zM360.6 232.4c-.8 2.8-.1 6.2 2.3 7.9 1.4 1.1 3.2 1.5 4.8 2.1 1.6.7 3.8 3.7 4 5.5.8-3.8 2.9-5.8 3-10.2.2-5.5-.3-6.4-.4-13.6 0-.5 0-1 .1-1.5h-.1c-2.8.8-5.7 1.7-8.2 3.2-2.5 1.5-4.7 3.8-5.5 6.6z" class="st2"></path><path d="m365.3 167.5-2.8 3.8c.2.2.4.4.7.6l2.6-2.9 15.5-2.6c-.1-.7-.5-2.3-.9-3.7-8.3 2.7-15.1 4.8-15.1 4.8z" class="st1"></path><path d="M362.9 183.9c-1.3 2.2-1.7 5.3.2 6.9 1.7 1.4 4.3.7 6-.6 1.7-1.4 2.8-3.3 4.2-5 2.2-2.5 5.3-4.2 8.6-4.7h.5c.2-3.9 0-7.9-.6-11.9l-.6.1c-.6 3-2.7 5.7-5.3 7.2-2.1 1.2-4.6 1.6-6.8 2.6-2.6 1-4.8 3-6.2 5.4zM368.8 154.1l1.9 2.2 4.6-3.3c-1.1-2.6-2.1-3.7-4.1-5.1l-.1.2c.7 2.3-.4 4.7-2.3 6z" class="st2"></path><g><g id="XMLID_00000118361117979422985200000017512505530270555012_"><path d="m369.8 125.2-.1-.1c-4-4.8-5.1-17.8-3.2-22l.1-.1c4.6 2 9.2 4.1 10.4 4.6 2.5 1.1 4.8 1.9 8.3 4.8 3.5 2.8 20.6 17.8 23.3 20.5 5.4 5.6 9.7 14.9.1 19.7-4.6 2.3-17.6 6.7-28.1 10.1-8.3 2.7-15.1 4.8-15.1 4.8l-2.8 3.8c-2.1-1.8-3.6-3.8-4.6-5.9h.1l12.8-9 4.6-3.3 17.5-12.2c-8.5-4.7-16.9-10-23.3-15.7z" class="st0"></path><path d="M369.8 125.2c0 .1 0 .1 0 0zM319.5 138.6h-.6c-1.5-4.3-3.7-11.8-3.7-15.9 0-4.7.9-6.9 2.6-8.7l14.3-13.2c.5-.1.9-.2 1.4-.4 0 0 1.7 8.6 11.8 8.6s18.3-4.9 18.6-7.3l2.7 1.2-.1.1c-1.9 4.3-.8 17.2 3.2 22l.1.1.1.1c-.1.5-.1.8-.1.8l-1.1 11.3-.4 1.2h-48.8zm31.8-17.6 2.3-5.9h-24.9l-3.1 5.9h25.7zM369.7 125.1s0 .1 0 0c0 .1 0 0 0 0z" class="st1"></path><path d="M331.1 144.7h-5.4c-.9 0-1.8.1-2.6.4l-1.3-6.4h46.6l-.5 7.3v.1c-.3-.1-.6-.3-1-.4-1.8-.6-3.7-1-5.2-1h-30.6z" class="st0"></path><path d="M353.9 70.5c-2-.7-3.6-2.6-3.9-5.7-5.2 0-11.1-.1-13.5 1.5 0 .8-.1 1.6-.2 2.4-2.1-2.7-2.6-9.2 6.3-10.8 2.1-.4 4.5-.5 6.8-.5 1.4 1 3.1 1.5 4.9 1.4.6 0 1.1-.2 1.7-.3 3.4 1 6 2.9 6.7 5.9 1.5 6.6 2.5 19.6-7 20.4l-.4-8.9c1.6 0 2.9-1.2 2.9-2.6s-1.3-2.7-2.9-2.7c-.3 0-.6.1-1 .1-.1 0-.2.1-.3.1l-.1-.3zm4.3 6.6c0-.7-.6-1.3-1.3-1.3s-1.3.6-1.3 1.3c0 .7.6 1.3 1.3 1.3s1.3-.5 1.3-1.3z" class="st1"></path><path d="M354.9 58.2c-1.7-.4-3.5-.6-5.4-.7-1.6-1.2-2.7-3-2.9-5.1-.4-3.9 2.6-7.4 6.5-7.8 3.9-.3 7.4 2.6 7.8 6.5.3 3.4-1.8 6.4-4.9 7.4-.3-.1-.7-.2-1.1-.3z" class="st1"></path><path d="m355.8 84.9.7 13.6s3.4 1.5 7.4 3.3c-.3 2.4-8.5 7.3-18.6 7.3s-11.8-8.6-11.8-8.6c3.2-.9 5.8-1.6 5.8-1.6l.9-5.9h.3l10-7.3.1-.1c2.6-1.9 4.1-5.2 4.6-9.6h.2l.4 8.9z" class="st0"></path><path d="M354.1 70.9c.1 0 .2-.1.3-.1.3-.1.6-.1 1-.1 1.6 0 2.9 1.2 2.9 2.7S357 76 355.4 76h-.2c-.5 4.4-2 7.7-4.6 9.6l-.1.1c-2 1.4-4.7 2-8 1.5-.4-.1-.9-.2-1.3-.3-3.1-.9-5.1-3.3-5.5-7.8-.1-1.6-.1-3 0-4.3.2-1.8.5-3.4.7-5.1 0-.3.1-.6.1-.9.1-.8.1-1.5.2-2.4 2.4-1.7 8.3-1.5 13.5-1.5.3 3.1 1.8 5 3.9 5.7v.3zm-8.5-.2c-.3 0-.5.2-.5.4s.2.4.5.4c.2 0 .5-.2.5-.4-.1-.2-.3-.4-.5-.4zm-6.6 0c-.3 0-.5.2-.5.4s.2.4.5.4.5-.2.5-.4-.2-.4-.5-.4zm6.3 7.5c0-.6-.5-1-1.1-1-.6 0-1 .5-1 1 0 .6.5 1.1 1 1.1.6-.1 1.1-.5 1.1-1.1z" class="st0"></path><path d="M356.9 75.8c.7 0 1.3.6 1.3 1.3 0 .7-.6 1.3-1.3 1.3s-1.3-.6-1.3-1.3c0-.7.6-1.3 1.3-1.3z" class="st22"></path><path d="m354.9 58.2 1.2.3c-.5.2-1.1.3-1.7.3-1.8.2-3.5-.4-4.9-1.4 1.9.2 3.7.4 5.4.8zM353.6 115.1l-2.3 5.9h-25.8l3.1-5.9zM350.4 85.7l-10 7.3h-.3l1-6c.4.1.9.2 1.3.3 3.2.4 5.9-.2 8-1.6zM345.6 70.7c.2 0 .5.2.5.4s-.2.4-.5.4-.5-.2-.5-.4.2-.4.5-.4zM344.2 77.1c.6 0 1.1.5 1.1 1 0 .6-.5 1.1-1.1 1.1-.6 0-1-.5-1-1.1 0-.5.4-1 1-1zM339 70.7c.3 0 .5.2.5.4s-.2.4-.5.4-.5-.2-.5-.4.2-.4.5-.4z" class="st1"></path><path d="M336.2 69.7c-.2 1.7-.5 3.3-.6 5.1-1.1-.4-1.9-1.3-1.9-2.5 0-1.3 1.1-2.4 2.5-2.6z" class="st0"></path><path d="M333.7 74.8c.7 0 1.3.6 1.3 1.3 0 .7-.6 1.3-1.3 1.3s-1.3-.6-1.3-1.3c0-.7.6-1.3 1.3-1.3z" class="st22"></path><path d="M314 156.6c-.2.6-.4 1.1-.5 1.7-.7 2.3-1.1 4.7-1.5 7.2-15.6 19.6-25.1-3.5-24.8-8.4.3-4.8-1.5-37.4-1.5-37.4v-.4h-6.2c1.8 0 2.1-2.3 0-2.3 1.6 0 2.1-1.6 1-2.1l.6-.2c-1.5-1-1.8-2.7-1.8-2.7-.3.1-.7.1-1 .1-2 0-3.7-1.2-4.3-2.1-.3-.4-.4-.8 0-.9 1.2-.3 1.6.3 8.9 0 7.2-.3 9.4 3.7 11.4 8.3 1.9 4.5 4.2 7.5 5 27.3 3-9.6 8.3-24.5 10.2-29.6 2.6-7.2 9.1-10.4 13-11.6 1.9-.6 5.9-1.7 9.5-2.7L317.7 114c-1.8 1.8-2.6 4-2.6 8.7 0 4.1 2.2 11.7 3.7 15.9h.6l-5.4 18z" class="st0"></path><path d="M278.4 112.4v-.2c.3 0 .6 0 1-.1 0 0 .2 1.7 1.8 2.7l-.6.2c-.2-.1-.6-.2-1-.2h-4.9c-2.3 0-1.8-2.3 0-2.3h2.8c.4-.1.8-.1.9-.1z" class="st0"></path><path d="M280.5 114.9c1.1.6.7 2.1-1 2.1h-4.9c-2.3 0-1.8-2.3 0-2.3h4.9c.4 0 .8.1 1 .2zM279.5 117c2.1 0 1.8 2.3 0 2.3h-5c-2.3 0-1.8-2.3 0-2.3h5zM278.4 112.1v.2h-10.7c-2.3 0-1.9-2.3 0-2.3h6.5c.5.9 2.2 2.1 4.2 2.1z" class="st0"></path><g><path d="M350.5 85.6c2.6-1.9 4.1-5.2 4.6-9.6M335.6 74.8c-.1 1.3-.2 2.7 0 4.3.4 4.4 2.4 6.9 5.5 7.8.4.1.9.2 1.3.3 3.3.5 6-.1 8-1.5" class="st27"></path><path d="M354.3 70.7c-.1 0-.3-.1-.4-.1-2-.7-3.6-2.6-3.9-5.7-5.2 0-11.1-.1-13.5 1.5 0 .8-.1 1.6-.2 2.4 0 .3-.1.6-.1.9-.2 1.7-.5 3.3-.7 5.1" class="st4"></path><path d="m341.8 70.9-.9 2.6c-.2.5 0 1.1.5 1.4l.8.5M345.1 71.1c0 .2.2.4.5.4.2 0 .5-.2.5-.4s-.2-.4-.5-.4-.5.2-.5.4zM345.4 70.7h1.9M338.5 71.1c0-.2.2-.4.5-.4s.5.2.5.4-.2.4-.5.4c-.3.1-.5-.1-.5-.4zM339.1 70.7h-1.8M347.7 68.8h-3.2M339.9 68.8h-2.3M352.8 72.1c.3-.5.8-.9 1.3-1.1.1 0 .2-.1.3-.1.3-.1.6-.1 1-.1 1.6 0 2.9 1.2 2.9 2.7s-1.3 2.6-2.9 2.6l.4 8.9.7 13.6s3.4 1.5 7.4 3.3l2.7 1.2c4.6 2 9.2 4.1 10.4 4.6 2.5 1.1 4.8 1.9 8.3 4.8 3.5 2.8 20.6 17.8 23.3 20.5 5.4 5.6 9.7 14.9.1 19.7-4.6 2.3-17.6 6.7-28.1 10.1-8.3 2.7-15.1 4.8-15.1 4.8l-2.8 3.8M335.6 74.8c-1.1-.4-1.9-1.3-1.9-2.5 0-1.3 1.1-2.5 2.5-2.6" class="st27"></path><path d="M356.4 73.3c0-.7-.6-1.2-1.3-1.2-.5 0-.9.2-1.2.6M299.4 144.7c-.7 2.1-1.2 4-1.6 5.5-.9 3.4-1 1.7-.9 7.5M341 86.9l-1 6-.9 5.9s-2.6.7-5.8 1.6c-.4.1-.9.2-1.4.4-3.6 1-7.6 2.1-9.5 2.7-3.9 1.1-10.3 4.3-13 11.6-1.9 5.2-7.2 20-10.2 29.6M350.5 85.6l-.1.1-10 7.3M308.4 156.7c-2.4-.7-7-.4-7-.4M392.8 140.9l-17.4 12.2-4.7 3.3-12.7 8.9M396 138.6l-3.2 2.3M369.7 125.1s0 .1 0 0l.1.1c6.4 5.7 14.8 10.9 23 15.6h0M368.9 124.4c.2.2.5.5.8.7" class="st27"></path><path d="M363.8 101.7c-.3 2.4-8.5 7.3-18.6 7.3s-11.8-8.6-11.8-8.6M369.7 126.1s0-.3.1-.8c0 0 0 0 0 0 .2-.7.6-1.8 1.7-2.6M368.6 137.4l1.1-11.3" class="st27"></path><path d="M332 100.8 317.7 114c-1.8 1.8-2.6 4-2.6 8.7 0 4.1 2.2 11.7 3.7 15.9h49.4l.4-1.2M366.5 103.1c-1.9 4.3-.8 17.2 3.2 22h0l.1.1.1.1c0 .1.1.1.1.2" class="st27"></path><path d="M363.2 124.1c1.5 1.7 3.2 3.6 2.2 5.6-1 2.1-3.4 2.1-1 6.5M325.5 121h25.8l2.3-5.9h-25z" class="st28"></path><path d="m368.3 138.6-.5 7.4M321.8 138.6l1.3 6.5M375.4 153.1c-1.1-2.6-2.1-3.7-4.1-5.1-.3-.2-.7-.5-1.1-.8-.7-.5-1.5-.9-2.4-1.2-.3-.1-.6-.3-1-.4-1.8-.6-3.7-1-5.2-1h-36c-.9 0-1.8.1-2.6.4-1.3.4-2.5 1.1-3.4 1.9h0c-.1.1-.1.2-.2.2-2.6 2.7-4.4 5.9-5.5 9.4-.2.6-.4 1.1-.5 1.7-.7 2.3-1.1 4.7-1.5 7.2-.1.8-.2 1.5-.3 2.3-.2 2.1-1.9 11.7-4.4 25.1-1.1 5.8-2.3 12.3-3.6 19.2-1.1 6.1-2.3 12.5-3.6 19.1-1.4 7.2-2.8 14.6-4.1 21.8-.2 1-.4 1.9-.5 2.9-.5 2.9-1.1 5.7-1.6 8.5-2.4 12.7-4.6 24.2-6.2 32.5-1.6 8.2-2.5 13.3-2.5 13.3h29s-.3-4.7 2.1-8c2.3-3.3 4.3-6.4 5-10.7.7-4.3 2.4-12.1 3.4-16.6.1-.3.1-.6.2-.9.5-1.7 1.1-2.7 1.7-3.7.7-1.2 1.4-2.5 2.1-5 1.3-5 .8-7.5 2.5-12.3.8-2.4 1.9-5 2.8-6.9.9-2 1.6-3.4 1.6-3.4" class="st27"></path><path d="M332.7 215.5c.1 6.4.5 11.9 1.3 17.1.3 1.6.7 5.2 1.2 10 .8 7.1 1.7 17 2.7 26.9.2 2.4.5 4.8.7 7.2 1.6 17.5 3.1 33.4 3.1 33.4h27.6s1.1-8.2 2.2-17.6c.6-4.5 1.2-9.3 1.7-13.6.7-6.2 1.3-11.5 1.5-13.6.4-6.6-3.1-8.2-3.2-14.3 0-1.2.1-2.3.3-3.2.8-3.8 2.9-5.8 3-10.2.2-5.5-.3-6.4-.4-13.6 0-.5 0-1 .1-1.5.2-2.2.7-4.9 1.5-7.9 1.8-7.3 4.6-16.7 5.9-26.9.3-2.4.5-4.8.6-7.3.2-3.9 0-7.9-.6-11.9-.1-.7-.2-1.5-.4-2.2-.1-.7-.5-2.3-.9-3.7" class="st27"></path><path d="M331.1 165.4h2s0 17.2-.1 30.1c0 2.6-.1 5.1-.1 7.1-.1 3.9-.1 7.5-.1 10.9v2M355.6 148.8c0 1.7-.1 3.7 0 6 .1 3.3.5 7 2.3 10.6 1 2.1 2.5 4.1 4.6 5.9.2.2.4.4.7.6 1.2 1 2.6 1.9 4.2 2.7M332.7 215.5s0 0 0 0c-.6 8.2-.6 23.7.8 30.5M321.1 133.2l-1.6 5.4-5.5 18-.2.6M364.7 310.2l-.3 1.2-3.7 18.3 4.9 8h-16.8l2.5-8v-.2l-2.7-16.6h0l-.4-2.7M360.7 329.7h-9.4M365.6 337.7c1 0 .9 2.8 0 2.8h-16.8c-1 0-1.7-2.8 0-2.8M361.3 333.7h-7M364.1 311.4l-15.4 1.5M309 310.2l-.4 1.3-5.9 16.7-.3 4-.2 3.5M302.2 335.8h0l1.9-.1c.7-.1 1.3.4 1.3 1.1v2.7c0 .6-.5 1.1-1.2 1.1h-25c-.7 0-1.2-.5-1.2-1.1v-.7c0-.5.5-1 1.1-1.1l17.9-1.4 5.2-.5zM302.7 328.2h-10.3l-3.9 2.7-9.4 6.8" class="st27"></path><path d="m290.4 332.2-1.9-1.3-1.7-1.2M302.4 332.2c-1.7 0-5.5 1-5.5 4M303.6 340.6v-2.9M301.4 340.6v-2.5M299.2 340.6v-2.1M292.4 328.2l1.7-15 .4-3M308.6 311.5l-14.5 1.7M381.4 166.3l-15.6 2.7-2.6 2.9" class="st27"></path><path d="M336.4 68.8c-2.1-2.7-2.6-9.2 6.3-10.8 2.1-.4 4.5-.5 6.8-.5 1.9.1 3.7.3 5.4.7l1.2.3c3.4 1 6 2.9 6.7 5.9 1.5 6.6 2.5 19.6-7 20.4 0 0 0 0 0 0" class="st4"></path><path d="M349.5 57.5c-1.6-1.2-2.7-3-2.9-5.1-.4-3.9 2.6-7.4 6.5-7.8 3.9-.3 7.4 2.6 7.8 6.5.3 3.4-1.8 6.4-4.9 7.4-.5.2-1.1.3-1.7.3-1.7.3-3.4-.3-4.8-1.3z" class="st4"></path><path d="M351.1 57.5c1.8-.1 3.1.3 3.8.7M360.1 64.8c6.9 7.6-3.4.2.1 4.7 1.5 1.9 1.9 5.3 1.9 5.3" class="st29"></path><path d="M344.2 77.1c.6 0 1.1.5 1.1 1 0 .6-.5 1.1-1.1 1.1-.6 0-1-.5-1-1.1 0-.5.4-1 1-1z" class="st6"></path><path d="M332.4 76.1c0-.7.6-1.3 1.3-1.3s1.3.6 1.3 1.3c0 .7-.6 1.3-1.3 1.3s-1.3-.6-1.3-1.3zM356.9 75.8c.7 0 1.3.6 1.3 1.3 0 .7-.6 1.3-1.3 1.3s-1.3-.6-1.3-1.3c0-.7.6-1.3 1.3-1.3z" class="st27"></path><path d="M307.5 192.4c0 .2-.1.4-.1.6-.7 3.4.7 7.2 3.5 9.3 2.1 1.6 5 2.3 6.8 4.3 2.6 2.9 2.1 7.4.1 10.8-1.9 3.3-5 5.8-7.6 8.6-2.6 2.8-4.9 6.4-4.7 10.2.1 1.5.6 3 1.2 4.5 1.2 3 2.7 5.9 1.9 8.9-.7 2.6-3 4.5-5.6 5.4-2.4.9-5.1.9-7.6 1h-.4" class="st6"></path><path d="M295.9 253s.1 0 0 0c3.7-1.3 7.7-3.1 8.6-6.8.4-1.8 0-3.4-.6-5.1-1-2.6-2.6-5.3-2.7-8.1 0-.5 0-1.1.1-1.6.4-2 1.4-3.9 2.5-5.7 1.4-2.2 2.9-4.5 3.2-7.1.4-2.6-.8-5.6-3.2-6.5M332.7 213.5c-2.6 1.1-5.8 2.7-8 4.4-2.2 1.7-4 4.1-4.2 6.9-.2 2 .4 4.1.6 6.1.4 5.2-2.2 10-4.3 14.7-2.1 4.7-3.9 10.2-1.9 15 2.1 5 7.9 8 9.3 13.3" class="st6"></path><path d="M326.5 270.5c-.1-.1-.1-.2-.2-.2-1.7-2-3.2-4.2-3.8-6.7-.7-2.6-.5-5.5 1-7.8 1.5-2.2 4.4-3.6 7-2.9M293.4 264.5c.1-.1.3-.1.4-.1 2.1-.6 4.2-1.3 6.4-1.4 2.3-.1 4.8.5 6.5 2.1 2.7 2.6 2.7 6.9 1.8 10.4-1.4 5.4-4.5 10.4-5.1 16-.4 3.7.4 7.4 2.1 10.7 1.2 2.4 2.9 4.5 5 6.1.3.2.6.5.9.7M287.4 296.9h.2c1.1 0 2.2-.1 3.3-.1 1.8 0 3.7-.1 5.5.5 2.4.9 4.3 2.9 5.5 5.2.2.3.3.6.4.9.9 2.1 1.4 4.3 1.9 6.5M312.2 165.2c3.2 1 5.7 4.2 5.7 7.6 0 2.7-1.3 5.6-.1 8.1 1.3 2.6 4.6 3.2 7.2 4.4 3.2 1.5 6.8 6.8 7.9 10.1M313.4 158.3c1.9-.1 3.8.9 4.6 2.6.5 1.1.6 2.4.9 3.6.3 1.2.8 2.5 2 3 1.5.7 3.3-.2 4.2-1.6.8-1.4.8-3.2.6-4.8-.5-5.1-2.6-10-5.8-13.9M331.2 144.1c-.1.2-.1.4-.1.6-.5 3.1 1.9 6.1 4.6 7.8 2.9 1.8 6.4 2.7 9.1 4.7 4.6 3.5 6.3 9.6 6.2 15.3-.1 5.7-1.7 11.3-2.5 17-.7 5.7-.5 11.8 2.6 16.6 3.1 4.8 10 7.5 14.9 4.4 4-2.5 5.3-7.7 6.7-12.2 1.4-4.6 3.8-9.7 8.5-10.6M358 144.9c.9.6 1.2 1.6 1.4 2.6.2 1 .3 2.1.8 2.9 1 1.5 3.4 1.7 4.9.6 1.4-1.1 2-3.1 1.5-4.9" class="st6"></path><path d="M347.4 144.7c-.3 3.2.4 6.9 3.1 8.7 1.5.9 3.3 1.1 5.1 1.4 2.2.3 4.5.9 6.7 1 2.3.1 4.6-.3 6.5-1.6 1.8-1.3 3-3.8 2.3-5.9M375.9 214.7c-5.1 2-9.3-1.7-13.5 1.7-4.3 3.4-6.3 5.6-6.4 11-.1 3.1.9 6.2.4 9.2-.6 4.8-4.3 8.5-5.9 13-1.1 2.8-1.3 5.8-1.8 8.8-.5 2.9-1.2 6-3.1 8.3-1.8 2.3-4.9 3.8-7.7 3-.1 0-.1 0-.2-.1M338.4 276.5c.1.1.1.2.2.2 2.9 4.4 9.3 6 14 3.5 4.8-2.5 7.2-8.6 5.8-13.8-.5-1.6-1.3-3.2-1.6-4.9-.3-1.7 0-3.7 1.4-4.7 1.1-.9 2.8-.8 4.1-.2 1.3.6 2.3 1.8 3 3.1 1.3 2.2 1.8 4.9 1.6 7.4-.3 2.7-1.4 5.5-.6 8.1.9 2.8 4.2 4.5 7 3.7h.1M371.2 292.6c-1.9-1.6-3.7-3.2-5.6-4.8-.9-.8-1.9-1.6-3-1.7-2.3-.3-4.3 2-4.6 4.4-.4 2.3.3 4.7.4 7.1.1 4.9-2.5 9.7-6.7 12.3M381.2 168.6c-.6 3-2.7 5.7-5.4 7.2-2.1 1.2-4.6 1.6-6.8 2.6-2.5 1.2-4.7 3.1-6.1 5.5-1.3 2.2-1.7 5.3.2 6.9 1.7 1.4 4.3.7 6-.6 1.7-1.4 2.8-3.3 4.2-5 2.2-2.5 5.3-4.2 8.6-4.7" class="st6"></path><path d="M374.3 222.6c-2.8.8-5.7 1.7-8.2 3.2-2.5 1.5-4.7 3.8-5.5 6.6-.9 2.8-.1 6.2 2.2 7.9 1.4 1.1 3.2 1.5 4.8 2.1 1.6.7 3.8 3.7 4 5.5" class="st6"></path><path d="M299.4 144.7h0c-.8-19.8-3.1-22.7-5-27.3-2-4.6-4.1-8.6-11.4-8.3-7.3.3-7.6-.4-8.9 0-.4.1-.3.5 0 .9.6.9 2.3 2.1 4.3 2.1.3 0 .6 0 1-.1 0 0 .2 1.7 1.8 2.7.8.5 1.9.9 3.4.8M277.4 112.4h1s0 0 0 0M274.1 110.1h-6.5c-1.9 0-2.3 2.3 0 2.3h6.9M274.6 117c-2.3 0-1.8-2.3 0-2.3" class="st27"></path><path d="M277.4 117h-2.8c-1.8 0-2.3 2.3 0 2.3h5c1.8 0 2.1-2.3 0-2.3h-2.2M279.5 117c1.6 0 2.1-1.6 1-2.1-.2-.1-.6-.2-1-.2h-4.9c-2.3 0-1.8-2.3 0-2.3h2.8M279.5 119.4h8.6M285.7 119.7s1.8 32.6 1.5 37.4c-.3 4.8 9.2 28 24.8 8.4.1-.1.2-.2.2-.3" class="st27"></path></g></g></g></svg>