<svg xml:space="preserve" y="0" x="0" viewBox="0 0 375.3 390.5" xmlns="http://www.w3.org/2000/svg" id="ss1" version="1.1"><style> #ss1 .st0 { fill: #fff; } #ss1 .st1 { fill: #2a2c32; } #ss1 .st2 { fill: #0ba3ad; } #ss1 .st3 { fill: #f9c9c4; } #ss1 .st4 { stroke-linecap: round; stroke-linejoin: round; } #ss1 .st4, #ss1 .st5, #ss1 .st6 { fill: none; stroke: #2a2c32; stroke-width: 0.8; } #ss1 .st6 { stroke-miterlimit: 10; } #ss1 .st8 { fill: #86c0c8; } #ss1 .st9 { fill: none; stroke: #000; stroke-width: 0.8; stroke-linecap: round; stroke-linejoin: round; } </style><path d="m124.4 3.7.2 88.9 79.1.4 19.5-4.8 7.6-16.7-1.3-15.3-.7-50.5z" class="st0"></path><g id="XMLID_00000109710622557110055670000006557853371514180799_"><path d="M355.9 310.5c7.6 0 13.8 6.2 13.8 13.8 0 10.1-13.8 30.3-13.8 30.3s-4.2-6.4-8-13.7v-16.6c0 4.4 3.6 8 8 8s8-3.6 8-8-3.6-8-8-8-8 3.6-8 8v-11.2c2.2-1.7 5-2.6 8-2.6z" class="st1"></path><path d="m353.7 53.3-5.8 6.9H229.2v-6.9z" class="st2"></path><path d="M347.9 340.9v48.8H232.6V254.5l5.4-7H163.3v-3.2c9.2 1.8 19 1.1 28.3-2.6 17.5-7 28.9-22.6 31.3-40.1 2.8-10.2 2.5-21.4-1.8-32-5.1-12.8-14.8-22.3-26.5-27.5h30.1v-7.4h-1.4V92.5c0-.8 0-1.6-.1-2.3h5.9v-30h118.7V313c-3.5 2.5-5.8 6.6-5.8 11.2.1 4.3 2.8 10.8 5.9 16.7zm-14.8-118.5V215h-1.4v-42.4c0-5.9-2.4-11.1-6.2-15-3.8-3.8-9.1-6.2-15-6.2-11.7 0-21.2 9.5-21.2 21.2V215H288v7.4h45.1zm0-80.2v-7.4h-1.4V92.5c0-5.8-2.4-11.1-6.2-15-3.8-3.8-9.1-6.2-15-6.2-11.7 0-21.2 9.5-21.2 21.2v42.4H288v7.4h45.1zm-54.2 80.2V215h-1.4v-42.4c0-5.9-2.4-11.1-6.2-15-3.8-3.8-9.1-6.2-15-6.2-11.7 0-21.2 9.5-21.2 21.2V215h-1.4v7.4h45.2zm0-80.2v-7.4h-1.4V92.5c0-5.8-2.4-11.1-6.2-15-3.8-3.8-9.1-6.2-15-6.2-11.7 0-21.2 9.5-21.2 21.2v42.4h-1.4v7.4h45.2z" class="st0"></path><path d="M347.9 324.3v16.6c-3-5.9-5.8-12.4-5.8-16.6 0-4.6 2.3-8.8 5.8-11.2v11.2z" class="st1"></path><path d="M333.1 215v7.4h-45V215H331.8zM333.1 134.9v7.3h-45v-7.3H331.8zM331.8 183.3V215h-42.4v-31.7h.3zM331.8 172.7v10.6h-42.3v-10.6c0-11.7 9.5-21.2 21.2-21.2 5.9 0 11.1 2.4 15 6.2 3.7 3.9 6.1 9.2 6.1 15zM331.8 103.1v31.8h-42.4v-31.8h.3zM331.8 92.5v10.6h-42.3V92.5c0-11.7 9.5-21.2 21.2-21.2 5.9 0 11.1 2.4 15 6.2 3.7 3.9 6.1 9.2 6.1 15zM278.9 215v7.4h-45V215H277.6zM278.9 134.9v7.3h-45v-7.3H277.6zM277.6 183.3V215h-42.4v-31.7h.4zM277.6 172.7v10.6h-42.3v-10.6c0-11.7 9.5-21.2 21.2-21.2 5.9 0 11.1 2.4 15 6.2 3.7 3.9 6.1 9.2 6.1 15zM277.6 103.1v31.8h-42.4v-31.8h.4zM277.6 92.5v10.6h-42.3V92.5c0-11.7 9.5-21.2 21.2-21.2 5.9 0 11.1 2.4 15 6.2 3.7 3.9 6.1 9.2 6.1 15zM238 247.6l-5.4 6.9v-6.9z" class="st0"></path><path d="M203.2 254.5h29.4v135.1h-29.4z" class="st3"></path><path d="M203.2 247.6h29.4v7h-29.4z" class="st0"></path><path d="m232.4.7-3.2 7H124.6l-2.3-7z" class="st2"></path><path d="M229.2 60.2v30h-5.9c-.5-4.9-2.8-9.3-6.1-12.7-3.8-3.8-9.1-6.2-15-6.2-10.9 0-19.9 8.3-21.1 18.9h-17.9v-30h66z" class="st0"></path><path d="M229.2 53.3v6.9h-66.4l-5.8-6.9h8.8V55h18.6v-1.7h9V55H212v-1.7z" class="st2"></path><path d="M224.7 134.9v7.4h-30.1c-4.7-2.1-9.8-3.5-15-4V135H224.7zM223.4 103.1v31.8H181v-31.8h.4zM223.4 92.5v10.6H181V92.5c0-.8 0-1.6.1-2.3h42.1c.2.8.2 1.6.2 2.3z" class="st0"></path><path d="M223.3 90.2h-42.1c1.1-10.6 10.1-18.9 21.1-18.9 5.8 0 11.1 2.4 15 6.2 3.2 3.4 5.4 7.8 6 12.7zM219.8 176.3c3.3 8.3 4.2 17.1 3.1 25.4-3.8 13.6-13.2 25.5-26.7 32 12.1-7.2 19.9-19.6 21.6-33.1a45.3 45.3 0 0 0-1.5-29c-1.5-3.7-3.4-7.1-5.6-10.1 3.8 4.3 6.9 9.2 9.1 14.8z" class="st0"></path><path d="M222.9 201.7c1.1-8.3.2-17-3.1-25.4-2.2-5.6-5.3-10.6-9.1-14.8-7.5-10.2-18.9-16.7-31.2-18.1l.2-1.2v-4c5.2.6 10.3 1.9 15 4 11.7 5.1 21.4 14.7 26.5 27.5 4.2 10.6 4.5 21.8 1.7 32z" class="st0"></path><path d="M216.4 171.6c3.8 9.6 4.1 19.7 1.5 29 .9-7.3.1-15-2.8-22.4-9.2-23.2-35.5-34.5-58.7-25.3-2.5 1-4.8 2.1-7 3.5v-5.7c.6-.4 1.2-.8 1.8-1.1 1.1-.5 2.1-1 3.2-1.4 20.3-8.1 42.6-2 56.3 13.4 2.3 3 4.2 6.4 5.7 10z" class="st0"></path><path d="M215 178.2c2.9 7.4 3.8 15 2.8 22.4-3.7 13.1-13.2 24.3-26.8 29.7-14.3 5.7-29.8 3.5-41.7-4.4V199c6.8 4.5 16 8.8 25.9 8.3 20-.9 35.4-20.7 35.4-20.7s-17.1-18.4-37.1-17.5c-9.5.4-18 5.1-24.2 9.9v-22.6c2.2-1.3 4.5-2.5 7-3.5 23.2-9.2 49.5 2.1 58.7 25.3z" class="st0"></path><path d="M193.4 53.3h18.7V55h-18.7z" class="st2"></path><path d="M163.3 296.3v-41.8h39.9v135.1h-14.5v-76.5h-25.4z" class="st3"></path><path d="M163.3 247.6h39.9v7h-39.9zM210.7 186.6s-15.4 19.8-35.4 20.7c-9.9.4-19.2-3.9-25.9-8.3v-20c6.3-4.8 14.7-9.5 24.2-9.9 20-.9 37.1 17.5 37.1 17.5zm-18.1 3.7c1-1.3.8-3.2-.6-4.2-.8-.6-1.7-.7-2.5-.6-.7-3.6-2.6-7-5.8-9.4-6.8-5.2-16.5-3.9-21.7 2.8-5.2 6.8-3.9 16.5 2.9 21.7 6.8 5.2 16.5 3.9 21.7-2.9 1.5-1.9 2.4-4.1 2.9-6.3 1.1.3 2.4-.1 3.1-1.1zM217.8 200.6c-1.7 13.5-9.5 25.9-21.6 33.1-1.1.5-2.1 1-3.2 1.4-9.8 3.9-20.1 4.5-29.6 2.3-4.9-1.1-9.6-2.9-13.9-5.4v-6c11.9 7.9 27.4 10 41.7 4.4 13.4-5.5 22.9-16.7 26.6-29.8z" class="st0"></path><path d="M196.2 233.7c13.5-6.5 23-18.4 26.7-32-2.4 17.4-13.8 33.1-31.3 40.1-9.3 3.7-19.1 4.4-28.3 2.6v-5.3c8.5 1.9 17.7 1.3 26.4-2.1 2.3-1 4.4-2.1 6.5-3.3z" class="st1"></path><path d="M192.9 235.1c1.1-.4 2.2-.9 3.2-1.4-2.1 1.2-4.2 2.3-6.5 3.2-8.7 3.5-17.9 4-26.4 2.1v-1.6c9.7 2.2 19.9 1.6 29.7-2.3z" class="st1"></path><path d="M192.1 186.1c1.3 1 1.6 2.9.6 4.2-.8 1-2 1.4-3.1 1.1.4-1.9.4-3.9 0-5.9.8-.2 1.7 0 2.5.6z" class="st0"></path><path d="M189.5 185.5c.4 1.9.4 3.9 0 5.9-.4-.1-.8-.3-1.1-.5-1.3-1-1.6-2.9-.6-4.2.5-.7 1.1-1 1.7-1.2z" class="st0"></path><path d="M188.4 190.9c.4.3.7.4 1.1.5-.4 2.2-1.4 4.4-2.9 6.3-5.2 6.8-14.9 8.1-21.7 2.9-6.8-5.2-8.1-14.9-2.9-21.7 5.2-6.8 14.9-8.1 21.7-2.8 3.2 2.4 5.1 5.8 5.8 9.4-.7.2-1.3.5-1.7 1.1-1 1.3-.8 3.2.6 4.3zm-9.4 1c2-2.6 1.5-6.3-1.1-8.3-2.6-2-6.3-1.5-8.3 1.1-2 2.6-1.5 6.3 1.1 8.3 2.7 2 6.4 1.5 8.3-1.1z" class="st1"></path><path d="M188.7 350.4v39.2h-25.4v-35.3h13.9v-3.9z" class="st0"></path><path d="M163.3 324.3v-11.2h25.4v37.3h-11.5v-3.9h-13.9v-12.9z" class="st0"></path><path d="M165.8 53.3h18.7V55h-18.7z" class="st2"></path><path d="M163.3 90.2h17.9c-.1.8-.1 1.5-.1 2.3v42.4h-1.4v3.3c-5.4-.6-10.9-.3-16.4 1v-49zM179.5 143.4c12.3 1.4 23.7 7.9 31.2 18.1-13.7-15.4-36.1-21.5-56.3-13.4-1.1.4-2.2.9-3.2 1.4 2.1-1.2 4.2-2.3 6.5-3.2 7.2-2.8 14.6-3.7 21.8-2.9z" class="st0"></path><path d="M179.7 138.2v4l-.2 1.2c-7.2-.8-14.7 0-21.9 2.9-2.3.9-4.4 2-6.5 3.2l-1.8.9v-5.9c2-1.2 4.2-2.2 6.4-3.1 2.5-1 5-1.8 7.6-2.3 5.5-1.2 11-1.5 16.4-.9z" class="st0"></path><path d="M177.9 183.6c2.6 2 3.1 5.7 1.1 8.3-2 2.6-5.7 3.1-8.3 1.1-2.6-2-3.1-5.7-1.1-8.3 2-2.6 5.8-3.1 8.3-1.1z" class="st1"></path><path d="M163.3 350.4h13.9v3.9h-13.9zM163.3 346.5h13.9v3.9h-13.9zM163.3 354.3v35.3h-21.4v-39.2h11.5v3.9z" class="st0"></path><path d="M153.4 350.4h9.9v3.9h-9.9zM153.4 346.5h9.9v3.9h-9.9z" class="st0"></path><path d="M163.3 333.6v12.9h-9.9v3.9h-11.5v-37.3h21.4v11.2z" class="st0"></path><path d="M163.3 296.3v16.8h-21.4v76.5h-9V313h-23.6c.1-.3.1-.7.1-1v-5.3h23.2v-38.3h-95v-13.9h107c-1.2 1.2-2.1 2.7-2.3 4.4-.1.5.3 1 .9 1h.6V302.8c-.3.1-.6.3-.9.5-.4.4-.6.8-.6 1.4 0 1.1.9 2 2 2h13.4c.5 0 1-.2 1.4-.6.4-.4.6-.8.6-1.4 0-.9-.6-1.7-1.5-1.9v-6.2h5.1z" class="st3"></path><path d="M163.3 268.2v28.1h-5.1V268.2zM163.3 254.5v13.6h-5.1v-8.2h.6c.5 0 .9-.5.9-1-.2-1.7-1.1-3.2-2.3-4.4h5.9z" class="st3"></path><path d="M163.3 247.6v7h-6c-1.6-1.5-3.8-2.5-6.4-2.5-2.5 0-4.8.9-6.3 2.5h-107v-7H163.3zM163.3 244.4v3.2h-13.9v-8.2c4.3 2.3 9 4 13.9 5z" class="st0"></path><path d="M163.3 244.3c-4.9-.9-9.6-2.6-13.9-4.9v-6c4.3 2.6 9 4.5 13.9 5.6v5.3z" class="st1"></path><path d="M163.3 237.5v1.6c-4.9-1.1-9.6-3-13.9-5.6v-1.4c4.3 2.4 9 4.3 13.9 5.4z" class="st1"></path><path d="M163.3 139.2c-2.5.6-5.1 1.4-7.6 2.3-2.2.9-4.4 1.9-6.4 3.1V112h13.9v27.2zM163.3 90.2V112H56.4V90.2h100.4zM159.6 258.9c.1.5-.3 1-.9 1h-15.6c-.5 0-.9-.5-.9-1 .2-1.7 1.1-3.2 2.3-4.4h12.7c1.3 1.2 2.2 2.7 2.4 4.4zM158.2 302.6c.8.2 1.5 1 1.5 1.9 0 .6-.2 1-.6 1.4-.4.4-.8.6-1.4.6h-13.4c-1.1 0-2-.9-2-2a1.974 1.974 0 0 1 1.5-1.9v1.9h14.4v-1.9z" class="st0"></path><path d="M158.2 302.6v1.9h-14.4v-1.9c.2-.1.3-.1.5-.1h13.4c.1 0 .3 0 .5.1z" class="st0"></path><path d="M158.2 296.3v6.2c-.2-.1-.3-.1-.5-.1h-13.4c-.2 0-.3 0-.5.1v-1.1l14.4-5.9v.8z" class="st2"></path><path d="M158.2 288.9v6.7l-14.4 5.9v-6.7z" class="st0"></path><path d="M158.2 282.3v6.6l-14.4 5.9v-6.6z" class="st2"></path><path d="M158.2 275.6v6.7l-14.4 5.9v-6.7z" class="st0"></path><path d="M158.2 268.9v6.7l-14.4 5.9v-6.7z" class="st2"></path><path d="M158.2 268.2v.7l-14.4 5.9v-6.6l14.4-6z" class="st0"></path><path d="M158.2 259.9v2.3l-14.4 6v-6.3l4.8-2z" class="st2"></path><path d="M157.3 254.5h-12.7c1.6-1.5 3.8-2.5 6.3-2.5 2.6 0 4.8 1 6.4 2.5zM149.4 150.4l1.8-.9c-.6.3-1.2.7-1.8 1.1v-.2zM149.4 239.4v8.2h-18.6v-25.2c4.7 7.3 11.2 13.1 18.6 17z" class="st0"></path><path d="M149.4 233.4v6c-7.4-3.9-13.9-9.7-18.6-17v-8.8c1.7 2.9 3.6 5.6 5.8 8.1 3.5 4.8 7.9 8.7 12.8 11.7z" class="st1"></path><path d="M149.4 232.1v1.4c-4.9-3-9.3-7-12.8-11.8 3.7 4.2 8 7.7 12.8 10.4z" class="st1"></path><path d="M149.4 226v6.1c-4.8-2.7-9.1-6.2-12.8-10.4-2.2-3-4.1-6.4-5.6-10.1-.1-.2-.2-.4-.2-.6v-10.7c.4 1.6 1 3.2 1.6 4.8 3.5 8.8 9.5 16 17 20.9z" class="st0"></path><path d="M149.4 199v27c-7.4-4.9-13.5-12.1-17-21-.6-1.6-1.1-3.2-1.6-4.8v-21.4c3.5-9.1 9.9-17.1 18.6-22.4V179c-6.9 5.3-11.2 10.8-11.2 10.8s4.3 4.7 11.2 9.2z" class="st0"></path><path d="M149.4 179v20c-6.9-4.5-11.2-9.2-11.2-9.2s4.2-5.4 11.2-10.8zM149.4 150.7v5.7c-8.7 5.3-15.1 13.3-18.6 22.4v-2.4c2.8-10.3 9.3-19.6 18.6-25.7z" class="st0"></path><path d="M149.4 150.4v.2c-9.3 6.1-15.8 15.4-18.6 25.7v-8.9c4.5-6.9 10.8-12.9 18.6-17z" class="st0"></path><path d="M149.4 144.6v5.9c-7.8 4.1-14.1 10-18.6 17v-4.4c4.3-7.6 10.6-14 18.6-18.5z" class="st0"></path><path d="M149.4 112v32.6c-7.9 4.5-14.2 11-18.6 18.5V112h18.6zM148.6 259.9l-4.8 2v-2zM132.8 373.9v15.8H96c2.9-7 4.6-12.1 5.2-15.8h31.6z" class="st0"></path><path d="M132.8 313.1v60.8h-31.6c1.9-10.3-3.9-8.1-9.9 0H83c-.9-1-2.2-.9-3.6 0H67.2c-5.2-9.7-11.6-17.2-17.8-21.8v-33.8c.2 0 .5.1.8.1h3.4c1.8 0 3.4-.8 4.5-2 1.1 1.2 2.7 2 4.5 2h3.3c1.8 0 3.4-.8 4.5-2l.4.4c1.1 1 2.6 1.6 4.1 1.6h3.3c1.8 0 3.4-.8 4.5-2 1.1 1.2 2.8 2 4.5 2h3.3c1.8 0 3.4-.8 4.5-2 1.1 1.2 2.8 2 4.5 2h3.3c3.1 0 5.7-2.2 6.2-5.2h23.8z" class="st0"></path><path d="M132.5 268.4v38.4h-23.2v-15.1H106z" class="st1"></path><path d="M132.5 268.4 106 291.7H93.6l26.9-23.3zM131 211.6c1.5 3.7 3.3 7 5.6 10.1-2.2-2.5-4.1-5.2-5.8-8.1V211c.1.2.1.4.2.6zM130.8 222.4v25.2h-18.6v-21.3l12.4-7 3.1-1.8.2-.1c.9 1.7 1.8 3.4 2.9 5z" class="st0"></path><path d="M127.9 217.3c-.6-1.2-1.2-2.5-1.7-3.8l-.3-.9.1-.1 3.1-1.8.2-.1c.5 1 1 1.9 1.5 2.9v8.8c-1.1-1.5-2-3.2-2.9-5z" class="st1"></path><path d="M130.8 211v2.6c-.5-.9-1.1-1.9-1.5-2.9-.6-1.2-1.2-2.5-1.7-3.8-.5-1.3-1-2.6-1.4-3.9-2.2-7.1-2.7-14.4-1.7-21.4 1.4-5 3.5-9.8 6.3-14.1v8.9c-.6 2-1 4.1-1.2 6.2-2.6 9.1-2.4 19 1.2 28.4z" class="st0"></path><path d="M130.8 200.2V211c-3.6-9.4-3.8-19.3-1.2-28.3-.8 5.7-.5 11.7 1.2 17.5z" class="st0"></path><path d="M130.8 178.9v21.4c-1.6-5.9-2-11.9-1.2-17.6.3-1.3.7-2.6 1.2-3.8z" class="st0"></path><path d="M130.8 176.4v2.4c-.5 1.2-.9 2.5-1.2 3.8.2-2.1.6-4.2 1.2-6.2zM130.8 163.1v4.4c-2.8 4.3-5 9.1-6.3 14.1.8-6.6 3-12.9 6.3-18.5z" class="st0"></path><path d="M130.8 112v51.1c-3.3 5.7-5.5 11.9-6.3 18.5-2 7.1-2.4 14.6-1.1 22.1l-11.2 2.8V112h18.6z" class="st0"></path><path d="m129.2 210.7-.2.1-3.1 1.8s-.3-.6-.7-1.6c-.7-2-1.2-4-1.6-6v-1.4l2.3-.6.2-.1c.4 1.3.8 2.6 1.4 3.9.6 1.4 1.1 2.7 1.7 3.9zM127.9 217.3l-.2.1-3.1 1.8s-1.1-2.3-1.8-4.8l3-1.7.3.9c.6 1.2 1.2 2.5 1.8 3.7z" class="st1"></path><path d="M126.2 203h-.2l-2.3.6-.3.1c-1.3-7.5-.9-15 1.1-22.1-1 7-.5 14.3 1.7 21.4z" class="st1"></path><path d="m126 212.6-.1.1c-.2-.6-.4-1.1-.6-1.6.4.8.7 1.5.7 1.5z" class="st0"></path><path d="m125.8 212.6-3 1.7c-.4-1.4-.7-3-.5-4.2l2.3-.6h.1c.2.5.4 1 .5 1.4.2.6.5 1.2.6 1.7z" class="st0"></path><path d="M125.3 211c-.2-.4-.3-.9-.5-1.4-.5-1.4-1-3.1-1.1-4.6.4 2 .9 4 1.6 6z" class="st1"></path><path d="m124.7 209.6-2.4.6-10.2 2.5v-6.3l11.2-2.8c.1.4.2.9.2 1.3.2 1.6.7 3.3 1.2 4.7z" class="st0"></path><path d="m124.6 219.2-12.4 7v-5.8l10.6-6c.7 2.5 1.8 4.8 1.8 4.8z" class="st1"></path><path d="m123.4 203.7.3-.1c-.1.4-.1.9 0 1.4-.1-.5-.2-.9-.3-1.3zM122.8 214.4l-10.6 6v-7.7l10.2-2.5c-.2 1.2 0 2.7.4 4.2z" class="st0"></path><path d="m120.5 268.4-26.9 23.3H81.2l26.9-23.3z" class="st2"></path><path d="M112.2 226.2v21.4H93.6v-10.9z" class="st0"></path><path d="M112.2 220.4v5.8l-18.6 10.5v-5.8z" class="st1"></path><path d="M112.2 212.7v7.7l-18.6 10.5V211l6.5-1.6 12.1-3z" class="st0"></path><path d="M112.2 112v94.4l-12.1 3-6.5 1.6v-99z" class="st0"></path><path d="M109.3 306.8v5.3c0 .4 0 .7-.1 1h-3.3c.1-.3.1-.7.1-1v-5.3h3.3zM106 291.7h3.3v15.1H106zM105.9 313.1h3.3c-.5 3-3.1 5.2-6.2 5.2h-3.3c3.2 0 5.7-2.2 6.2-5.2z" class="st1"></path><path d="m108.1 268.4-26.9 23.3H68.8l27-23.3zM106 306.8v5.3c0 .4 0 .7-.1 1H93.6c0-.1 0-.2-.1-.3v-21.2H106v15.2zM93.6 313.1h12.3c-.5 3-3.1 5.2-6.2 5.2-1.8 0-3.4-.8-4.5-2-.8-.8-1.4-1.9-1.6-3.2zM91.4 373.9c6-8.1 11.8-10.3 9.9 0h-9.9z" class="st0"></path><path d="M91.4 373.9h9.9c-.7 3.6-2.3 8.8-5.2 15.8H73.8c-.6-1.8-1.2-3.5-1.8-5.1 2.5-5.5 5.2-9.2 7.4-10.6H83c1.2 1.2 2 4 2.1 8.5 0 .6.8.8 1.1.2 1.6-3.4 3.4-6.4 5.2-8.8z" class="st0"></path><path d="M88.9 38.4c7.6 0 13.8 6.2 13.8 13.8 0 10.1-13.8 30.3-13.8 30.3S75.1 61.7 75.1 52.2c0-7.6 6.2-13.8 13.8-13.8zm8 13.8c0-4.4-3.6-8-8-8s-8 3.6-8 8 3.6 8 8 8 8-3.6 8-8z" class="st1"></path><path d="m95.8 268.4-27 23.3H56.4l27-23.3z" class="st2"></path><path d="M93.6 313.1c.2 1.2.8 2.4 1.6 3.2-1.1 1.2-2.8 2-4.5 2h-3.3c3.1 0 5.7-2.2 6.2-5.2zM93.6 313.1c-.1-.1-.1-.2-.1-.3.1.2.1.3.1.3z" class="st1"></path><path d="M93.6 291.7v21.5H81.2c0-.1 0-.2-.1-.3v-21.2h12.5z" class="st2"></path><path d="M93.6 236.7v10.8H75v-.7h.1c.9-.3 1.7-.6 2.5-1.1l16-9z" class="st0"></path><path d="M93.6 230.9v5.8l-16 9.1c-.8.5-1.7.8-2.5 1.1H75v-6.3c.5-.1 1-.2 1.4-.3.9-.3 1.7-.6 2.5-1.1l14.7-8.3z" class="st1"></path><path d="M93.6 211v19.9L79 239.2c-.8.5-1.7.8-2.5 1.1-.5.1-.9.2-1.4.3v-25l18.5-4.6zM93.6 112v99L75 215.6V112z" class="st0"></path><path d="M81.2 313.1h12.3c-.5 3-3.1 5.2-6.2 5.2-1.8 0-3.4-.8-4.5-2-.8-.8-1.4-1.9-1.6-3.2z" class="st2"></path><path d="M83 373.9h8.3c-1.8 2.4-3.6 5.4-5.2 8.7-.3.6-1.1.4-1.1-.2 0-4.5-.8-7.3-2-8.5zM83.4 268.4l-27 23.3H44l27-23.3zM83 373.9h-3.6c1.4-.9 2.7-1 3.6 0z" class="st0"></path><path d="M82.8 316.4c-1.2 1.2-2.8 2-4.5 2H75c3.1 0 5.7-2.3 6.1-5.2h.1c.2 1.2.8 2.3 1.6 3.2zM81.2 313.1c-.1-.1-.1-.2-.1-.3.1.2.1.3.1.3z" class="st1"></path><path d="M81.2 291.7v21.5H68.9c0-.1 0-.2-.1-.3v-21.2h12.4z" class="st0"></path><path d="M68.9 313.1h12.3c-.5 3-3.1 5.2-6.1 5.2-1.6 0-3-.6-4.1-1.6-.1-.1-.3-.2-.4-.4-1-.8-1.5-1.9-1.7-3.2zM67.2 373.9h12.2c-2.2 1.4-4.8 5.1-7.4 10.6-1.4-3.8-3.1-7.3-4.8-10.6zM75 246.9v.7h-2.9c.9 0 1.9-.4 2.9-.7z" class="st0"></path><path d="M75 240.6v6.3c-.9.3-2 .7-2.9.7-.4 0-.7-.1-1.1-.2-7.4-3.2-9.2-13.9-9.2-13.9.2.4.3.8.6 1.1 2.6 4.6 7.7 6.8 12.6 6z" class="st1"></path><path d="M75 215.6v25c-4.9.8-10-1.4-12.6-6-.2-.4-.4-.8-.6-1.1-2.5-5.6-.3-12.3 5.2-15.4 1-.6 2-1 3.1-1.2l4.9-1.3z" class="st0"></path><path d="M61.8 233.5s1.8 10.7 9.2 13.9c.3.1.7.2 1.1.2H56.4V112H75v103.6l-4.9 1.2c-1 .3-2.1.7-3.1 1.2-5.5 3.1-7.7 9.8-5.2 15.5zM73.8 389.6h-3.9c.7-1.9 1.4-3.6 2.1-5.1.7 1.7 1.3 3.4 1.8 5.1z" class="st0"></path><path d="m71 268.4-27 23.3h-6.4v-5.2l21-18.1z" class="st2"></path><path d="M70.5 316.4c-1.2 1.2-2.8 2-4.6 2h-3.3c3.1 0 5.7-2.3 6.1-5.2h.1c.3 1.2.8 2.3 1.7 3.2z" class="st1"></path><path d="M72 384.5c-.7 1.6-1.4 3.3-2.1 5.1H49.4v-15.8h17.8c1.7 3.4 3.4 6.9 4.8 10.7z" class="st0"></path><path d="M68.9 313.1c-.1-.1-.1-.2-.1-.3 0 .2 0 .3.1.3z" class="st1"></path><path d="M68.8 291.7v21.5H56.5v-21.5h12.3z" class="st2"></path><path d="M56.5 313.1h12.3c-.5 3-3 5.2-6.1 5.2-1.8 0-3.4-.8-4.5-2-1-.8-1.5-1.9-1.7-3.2z" class="st2"></path><path d="M67.2 373.9H49.4v-21.8c6.2 4.6 12.6 12.1 17.8 21.8zM58.6 268.4l-21 18.1v-10.6l8.6-7.5z" class="st0"></path><path d="M58.1 316.4c-1.2 1.2-2.8 2-4.6 2h-3.3c3.1 0 5.6-2.3 6.1-5.2h.1c.3 1.2.8 2.3 1.7 3.2zM56.5 313.1c-.1-.1-.1-.2 0-.3-.1.2 0 .3 0 .3z" class="st1"></path><path d="M56.4 291.7v21.5h-7v5.1c-1.5-.2-2.8-.9-3.8-1.9-.9-.9-1.5-2.1-1.6-3.5v-21.2h12.4z" class="st0"></path><path d="M49.4 313.1h7c-.5 3-3 5.2-6.1 5.2h-.1c-.3 0-.5 0-.8-.1v-5.1zM49.4 373.9v15.8H37.6v-42.5c3.6.2 7.7 1.9 11.8 5v21.7z" class="st0"></path><path d="M49.4 318.3v33.8c-4.2-3.1-8.2-4.8-11.8-5v-28.8h3.5c1.8 0 3.4-.8 4.5-2 1 1.1 2.4 1.8 3.8 2z" class="st3"></path><path d="m46.2 268.4-8.6 7.5v-7.5z" class="st2"></path><path d="M45.7 316.4c-1.2 1.2-2.8 2-4.6 2h-3.2c3.2 0 5.8-2.4 6.2-5.5.1 1.3.7 2.5 1.6 3.5z" class="st1"></path><path d="M44 291.7v21.2c-.4 3.1-3 5.5-6.2 5.5H37.5v-26.7H44z" class="st2"></path><path d="M37.6 347.1v42.5h-31c-9.1-28.8-1.3-33.4 17.6-13.2.8.8 2.1.1 1.9-.9-2.8-20.4 2.9-28.8 11.5-28.4z" class="st0"></path><path d="M33.3 316.4c-.9-.9-1.4-2.1-1.6-3.5v-21.2h5.9v26.7c-1.7-.1-3.2-.9-4.3-2zM37.6 286.5v5.2h-5.9z" class="st2"></path><path d="M37.6 275.9v10.6l-5.9 5.2H19.3z" class="st0"></path><path d="M37.6 268.4v7.5l-18.3 15.8H6.8l26.5-23.3z" class="st2"></path><path d="M37.6 247.6v6.9l-5.4-6.9z" class="st0"></path><path d="M33.3 316.4c-1.2 1.2-2.8 2-4.6 2h-3.2c3.2 0 5.8-2.4 6.2-5.5.1 1.3.7 2.5 1.6 3.5z" class="st1"></path><path d="M31.7 291.7v21.2c-.4 3.1-3 5.5-6.2 5.5h-.1c-1.6 0-3-.6-4.1-1.6l-.4-.4c-.9-.9-1.5-2.1-1.6-3.5 0 .3-.1.6-.2.8v-22.1h12.6z" class="st0"></path><path d="M20.9 316.3c-1.2 1.2-2.8 2-4.6 2h-3.2c2.9 0 5.3-2 6-4.6.1-.3.1-.6.2-.8.1 1.3.7 2.5 1.6 3.4z" class="st1"></path><path d="M19.1 291.7v22.1c-.7 2.7-3.1 4.6-6 4.6H13c-3.4 0-6.2-2.8-6.2-6.2v-20.4h12.3z" class="st2"></path><g><path d="M102.7 52.2c0 10.1-13.8 30.3-13.8 30.3S75.1 61.7 75.1 52.2c0-7.6 6.2-13.8 13.8-13.8s13.8 6.2 13.8 13.8z" class="st4"></path><circle r="8" cy="52.2" cx="88.9" class="st4"></circle><path d="M355.9 362.9V378M156.8 40.5V55h-18.6V26h18.6zM138.2 40.5h18.6M138.2 90.2V61.3h18.6v28.9M138.2 75.8h18.6M165.8 53.3V26h18.6v27.3M165.8 40.5h18.6M193.4 53.3V26H212v27.3M193.4 40.5H212" class="st4"></path><path d="M229.2 53.3V7.7M124.6 7.7v82.5" class="st5"></path><path d="M163.3 244.3V237.5M347.9 340.9v48.7M347.9 60.2v252.9M163.3 90.2v-30" class="st4"></path><path d="M232.6 389.6h137.1M0 389.6h6.6M37.6 268.4v-13.9M37.6 347.1v-28.8M141.9 389.6h-9.1M203.2 389.6h-14.5" class="st6"></path><path d="M203.2 254.5v135.1h29.4V254.5M163.3 247.6H238l-5.4 6.9h-75.3M144.6 254.5h-107l-5.4-6.9H56.4M96 389.6h36.8v-76.5h-23.6M49.4 318.3v33.8" class="st4"></path><path d="M56.5 313.1h-.1M68.9 313.1h-.1" class="st6"></path><path d="M188.7 350.4v-37.3h-46.8v76.5h46.8zM177.2 350.4h11.5M141.9 350.4h11.5M79.4 373.9H67.2M91.4 373.9H83M132.8 373.9h-31.5" class="st4"></path><path d="M177.2 350.4v3.9h-23.8v-7.8h23.8zM158.2 259.9v42.7M143.8 302.6V259.9M158.2 268.2H163.9M158.2 296.3H163.9M158.2 259.9h.6c.5 0 .9-.5.9-1-.2-1.7-1.1-3.2-2.3-4.4-1.6-1.5-3.8-2.5-6.4-2.5-2.5 0-4.8.9-6.3 2.5-1.2 1.2-2.1 2.7-2.3 4.4-.1.5.3 1 .9 1H158.2zM158.2 302.6c.8.2 1.5 1 1.5 1.9 0 .6-.2 1-.6 1.4-.4.4-.8.6-1.4.6h-13.4c-1.1 0-2-.9-2-2a1.974 1.974 0 0 1 1.5-1.9c.2-.1.3-.1.5-.1h13.4c.1 0 .3 0 .5.1zM158.2 262.2l-14.4 6M148.6 259.9l-4.8 2M158.2 268.9l-14.4 5.9M158.2 275.6l-14.4 5.9M158.2 282.3l-14.4 5.9M158.2 288.9l-14.4 5.9M158.2 295.6l-14.4 5.9" class="st4"></path><path d="m106 291.7 26.5-23.3v38.4H106M6.8 291.7l26.5-23.3h99.2M13 318.3c-3.4 0-6.2-2.8-6.2-6.2v-20.4H106v20.4c0 .4 0 .7-.1 1-.5 3-3.1 5.2-6.2 5.2-1.8 0-3.4-.8-4.5-2-.8-.9-1.4-2-1.6-3.2 0-.1 0-.2-.1-.3v.3c-.5 3-3.1 5.2-6.2 5.2-1.8 0-3.4-.8-4.5-2-.8-.9-1.4-2-1.6-3.2 0-.1 0-.2-.1-.3v.3c-.5 3-3.1 5.2-6.1 5.2" class="st6"></path><path d="M25.4 318.3c-1.6 0-3-.6-4.1-1.6l-.4-.4c-.9-.9-1.5-2.1-1.6-3.5 0 .3-.1.6-.2.8-.7 2.7-3.1 4.6-6 4.6M37.8 318.3h-.2c-1.7-.1-3.2-.8-4.3-2-.9-.9-1.4-2.1-1.6-3.5-.4 3.1-3 5.5-6.2 5.5M50.2 318.3c-.3 0-.5 0-.8-.1-1.5-.2-2.8-.9-3.8-1.9-.9-.9-1.5-2.1-1.6-3.5-.4 3.1-3 5.5-6.2 5.5M62.6 318.3c-1.8 0-3.4-.8-4.5-2-.8-.9-1.4-2-1.6-3.2v-.3.3c-.5 3-3 5.2-6.1 5.2M75 318.3c-1.6 0-3-.6-4.1-1.6-.1-.1-.3-.2-.4-.4-.8-.9-1.4-2-1.6-3.2 0-.1 0-.2-.1-.3v.3c-.5 3-3 5.2-6.1 5.2M106 291.7h3.3v20.4c0 .4 0 .7-.1 1-.5 3-3.1 5.2-6.2 5.2h-3.3M95.2 316.4c-1.1 1.2-2.8 2-4.5 2h-3.3M82.8 316.4c-1.1 1.2-2.8 2-4.5 2H75" class="st6"></path><path d="M70.4 316.4c-1.1 1.2-2.8 2-4.5 2h-3.3M58 316.4c-1.1 1.2-2.8 2-4.5 2h-3.4M45.6 316.4c-1.1 1.2-2.8 2-4.5 2H37.8M33.2 316.4c-1.1 1.2-2.8 2-4.5 2H25.4M20.8 316.4c-1.1 1.2-2.8 2-4.5 2H13M93.6 312.9v-21.2M81.2 312.9v-21.2M68.8 312.9v-21.2M56.4 312.9v-21.2M44 312.9v-21.2M31.7 312.9v-21.2M19.1 313.7v-22M93.6 291.7l26.9-23.3M81.2 291.7l26.9-23.3M68.8 291.7l27-23.3M56.4 291.7l27-23.3M44 291.7l27-23.3M31.7 291.7l5.9-5.2 21-18.1M19.3 291.7l18.3-15.8 8.6-7.5M54.8 348l21.1-21.1M72.2 343.4l7.9-8M92.5 366.8l30.6-30.6M100.7 354.3 111 344M116.7 365.5l4.3-4.3M150.9 336.6l12.4-12.3.3-.3M162.4 334.6l.9-1 .9-.9M168.6 382.1l18-18M166.2 373.9l7.2-7.3" class="st6"></path><path d="M229.2 53.3h124.5l-5.8 6.9h0H162.8l-5.8-6.9H212zM229.2 7.7H124.6l-2.3-7h110.1zM181 134.9V92.5c0-.8 0-1.6.1-2.3 1.1-10.6 10.1-18.9 21.1-18.9 5.8 0 11.1 2.4 15 6.2 3.3 3.3 5.5 7.8 6.1 12.7.1.8.1 1.5.1 2.3v42.4" class="st4"></path><path d="M179.7 138.2v-3.3H224.7v7.3h-30" class="st4"></path><path d="M181.4 103.1h42" class="st5"></path><path d="M235.2 134.9V92.5c0-11.7 9.5-21.2 21.2-21.2 5.9 0 11.1 2.4 15 6.2 3.8 3.8 6.2 9.1 6.2 15v42.4M277.6 134.9h1.3v7.3h-45v-7.3h1.3z" class="st4"></path><path d="M235.6 103.1h42" class="st5"></path><path d="M289.4 134.9V92.5c0-11.7 9.5-21.2 21.2-21.2 5.9 0 11.1 2.4 15 6.2 3.8 3.8 6.2 9.1 6.2 15v42.4M331.8 134.9h1.3v7.3h-45v-7.3h1.3z" class="st4"></path><path d="M289.7 103.1h42.1" class="st5"></path><path d="M235.2 215v-42.4c0-11.7 9.5-21.2 21.2-21.2 5.9 0 11.1 2.4 15 6.2 3.8 3.8 6.2 9.1 6.2 15V215M235.2 215h42.4" class="st4"></path><path d="M235.6 183.3h42" class="st5"></path><path d="M289.4 183.3v-10.6c0-11.7 9.5-21.2 21.2-21.2 5.9 0 11.1 2.4 15 6.2 3.8 3.8 6.2 9.1 6.2 15V215M331.8 215h1.3v7.4h-45V215h1.3z" class="st4"></path><path d="M289.7 183.3h42.1" class="st5"></path><path d="M163.3 244.4v-.1" class="st4"></path><path d="M56.4 112v135.6h106.9v-3.2M163.3 139.2V112M163.3 90.2H56.4V112h106.9zM75 246.9v.7M75 112v103.6M93.6 230.9v16.7M93.6 112v99M112.2 226.2v21.4M112.2 112v94.4M130.8 222.4v25.2M130.8 112v51.1M149.4 239.4v8.2M149.4 112v32.6" class="st5"></path><path d="M75.1 246.9c-.1 0-.1 0 0 0-1 .3-2.1.7-3 .7-.4 0-.7-.1-1.1-.2-7.4-3.2-9.2-13.9-9.2-13.9M127.7 217.4l-3.1 1.8-12.4 7-18.6 10.5-16 9.1c-.8.5-1.7.8-2.5 1.1M125.8 212.6l.3.9c.5 1.3 1.1 2.6 1.7 3.8.9 1.8 1.8 3.4 2.9 5.1 4.7 7.3 11.2 13.1 18.6 17 4.4 2.3 9.1 4 13.9 5 9.2 1.8 19 1.1 28.3-2.6 17.5-7 28.9-22.6 31.3-40.1M123.6 205c.4 2 .9 4 1.6 6M124.4 181.6c-2 7.1-2.4 14.6-1.1 22.1" class="st6"></path><path d="M196.2 233.7c-2.1 1.2-4.2 2.3-6.5 3.2-8.7 3.5-17.9 4-26.4 2.1-4.9-1.1-9.6-3-13.9-5.6-4.9-3-9.3-7-12.8-11.8M126 203h.2M100.1 209.4l12.1-3 11.2-2.7.3-.1 2.3-.6M76.4 240.3c-.5.1-.9.2-1.4.3-4.9.8-10-1.4-12.6-6-.2-.4-.4-.8-.6-1.1-2.5-5.6-.3-12.3 5.2-15.4 1-.6 2-1 3.1-1.2l4.9-1.2 18.6-4.6 6.5-1.6M129.1 210.8l-3.1 1.8h-.2l-3 1.8-10.6 6-18.6 10.5" class="st6"></path><path d="M124.4 181.6c-1 7-.5 14.3 1.7 21.4.4 1.3.8 2.6 1.4 3.9.5 1.3 1.1 2.6 1.7 3.8.5 1 1 1.9 1.5 2.9 1.7 2.9 3.6 5.6 5.8 8.1 3.7 4.2 8 7.7 12.8 10.4 4.3 2.5 9 4.3 13.9 5.4 9.6 2.2 19.8 1.6 29.6-2.3 1.1-.4 2.2-.9 3.2-1.4 13.5-6.5 23-18.4 26.7-32 2.8-10.2 2.5-21.4-1.8-32-5.1-12.8-14.8-22.3-26.5-27.5-4.7-2.1-9.8-3.5-15-4-5.4-.6-10.9-.3-16.4 1-2.5.6-5.1 1.3-7.6 2.3-2.2.9-4.4 1.9-6.4 3.1-7.9 4.5-14.2 11-18.6 18.5" class="st6"></path><path d="M130.8 163.1c-3.3 5.7-5.5 11.9-6.3 18.5" class="st5"></path><path d="M179.5 143.4c12.3 1.4 23.7 7.9 31.2 18.1 2.3 3.1 4.2 6.4 5.6 10.1 3.8 9.6 4.1 19.7 1.5 29-3.7 13.1-13.2 24.3-26.8 29.7-14.3 5.7-29.8 3.5-41.7-4.4-7.4-4.9-13.5-12.1-17-21-.6-1.6-1.1-3.2-1.6-4.8-1.6-5.9-2-11.9-1.2-17.6.3-2.1.7-4.2 1.2-6.2 2.8-10.4 9.3-19.6 18.6-25.7.6-.4 1.2-.8 1.8-1.1M123.7 203.6c-.1.4-.1.9 0 1.4.1 1.5.6 3.2 1.1 4.6.2.5.4 1 .5 1.4.4 1 .7 1.6.7 1.6" class="st6"></path><path d="M189.5 191.4c-.4 2.2-1.4 4.4-2.9 6.3-5.2 6.8-14.9 8.1-21.7 2.9-6.8-5.2-8.1-14.9-2.9-21.7 5.2-6.8 14.9-8.1 21.7-2.8 3.2 2.4 5.1 5.8 5.8 9.4" class="st6"></path><path stroke-miterlimit="10" stroke-width=".8" stroke="#fff" fill="none" d="M179 191.9c-2 2.6-5.7 3.1-8.3 1.1-2.6-2-3.1-5.7-1.1-8.3 2-2.6 5.7-3.1 8.3-1.1 2.6 2 3.1 5.7 1.1 8.3z"></path><path d="M189.5 185.5c.9-.2 1.8 0 2.5.6 1.3 1 1.6 2.9.6 4.2-.8 1-2 1.4-3.1 1.1-.4-.1-.8-.3-1.1-.5-1.3-1-1.6-2.9-.6-4.2.5-.7 1.1-1 1.7-1.2z" class="st6"></path><path d="M149.4 179c6.3-4.8 14.7-9.5 24.2-9.9 20-.9 37.1 17.5 37.1 17.5s-15.4 19.8-35.4 20.7c-9.9.4-19.2-3.9-25.9-8.3-6.9-4.5-11.2-9.2-11.2-9.2s4.2-5.4 11.2-10.8z" class="st5"></path><path d="M124.6 16h104.6M124.6 18.7h104.6M347.9 313.1c2.3-1.6 5-2.6 8-2.6 7.6 0 13.8 6.2 13.8 13.8 0 10.1-13.8 30.3-13.8 30.3s-4.2-6.4-8-13.7c-3-5.9-5.8-12.4-5.8-16.6 0-4.6 2.3-8.8 5.8-11.2z" class="st4"></path><circle r="8" cy="324.3" cx="355.9" class="st4"></circle><path d="M72 384.5c-1.5-3.8-3.1-7.3-4.9-10.6-5.2-9.7-11.6-17.2-17.8-21.8-4.2-3.1-8.2-4.8-11.8-5-8.6-.5-14.3 8-11.4 28.4.1 1.1-1.2 1.8-1.9.9-18.8-20.2-26.7-15.6-17.6 13.2h63.3" class="st6"></path><path d="M69.9 389.6c.7-1.9 1.4-3.6 2.1-5.1 2.5-5.5 5.2-9.2 7.4-10.6 1.4-.9 2.7-1 3.6 0 1.2 1.2 2 4 2.1 8.5 0 .6.8.8 1.1.2 1.6-3.3 3.4-6.3 5.2-8.7 6-8.1 11.8-10.3 9.9 0-.7 3.6-2.3 8.8-5.2 15.8H69.9" class="st6"></path></g></g><g><g id="XMLID_00000003789888181819888970000011111212238099151528_"><path d="M332.3 167.5c-3.8-4.8-4-17.4-2.1-21.8l.1-.1c2.8 1.4 5.7 2.8 7.7 3.7 1 .5 1.7.8 2.1 1 2.4 1.1 4.5 2 7.8 4.9 3.2 2.9 19.2 18.3 21.7 21.1 5.1 5.7 9 15.4.1 20.3-4.9 2.7-20.6 8.4-30.9 12-3.8 1.3-6.9 2.4-8.5 2.9-.7.2-1.1.4-1.1.4l-2.6 3.9c-.1-.1-.3-.2-.4-.4-1.8-1.8-3-3.7-3.9-5.7h.1l3.9-2.7 4.1-2.8 6.5-4.5 21.5-15.1c-3.7-4.3-9.5-7.1-14.9-9.9-4.2-2.2-8.2-4.2-10.8-6.9-.3-.2-.4-.3-.4-.3z" class="st0"></path><path d="M343.2 174.5c-.9 5.6 3.4 5.2 1.2 11.1h-20.1l1.1-3.4h2.2l.4-1.3 3.5-11.6.3-.9s.1-.4.4-.9c0 .1.1.1.1.2 2.7 2.6 6.7 4.7 10.9 6.8zM338.7 210.6v.8l-8.6 1.8v-1.8c1.6-.5 4.6-1.6 8.5-2.9.1.7.1 1.4.1 2.1z" class="st1"></path><path d="M330.1 218.5v-1.7c0-1.3 0-2.5.1-3.6l8.6-1.8c-.2 12.6-4.2 36.2-4.2 53.9 0 18.2.9 15.8.8 21.4-.2 5.6-2.8 4.6-2.7 10.9.1 6.3 3.2 7.9 2.8 14.7-.4 6.8-7.3 46-7.3 46H325c.1-1.1 4.5-119.2 5.1-139.8z" class="st8"></path><path d="M297.9 143.3c-2.7.8-5.4 1.7-7.3 2.3v-.1s-.8-2.3-.5-5.3c.3-2.9 2.3-1.9 2.7-4.8.4-2.9-1.4-5.2-.7-7.9s2.7-2.4 3.2-5.5-.9-6-.3-10.8c.6-4.7 4.1-14.4 13.3-15 6.3-.4 11.3 2.2 12.5 5.5 0 0 4.6-.3 7.4 4.8 2.1 3.9.1 6.6.9 10.6s3.2 2 4.4 6.2c1.2 4.1-1.4 5.8 0 10.1 1.4 4.4 3.6 4.1 4.3 7.6.7 3.5-1.6 3.2-1.3 5.4.3 2 1.3 2.8 1.4 2.8-1.9-.9-4.8-2.3-7.7-3.7-.9-.4-1.7-.8-2.6-1.2-3.8-1.8-6.9-3.3-6.9-3.3l-1.1-25.2c1.5 0 2.7-1.2 2.7-2.7 0-1.5-1.2-2.7-2.7-2.7-.3 0-.6.1-.9.2-.1 0-.2.1-.3.1l-.2-.4c-1.9-.8-3.4-2.7-3.6-5.8-4.9 0-10.4-.2-12.6 1.5 0 1.2-.1 2.3-.3 3.4h-.1c-1.3.2-2.4 1.3-2.4 2.7 0 1.2.7 2.2 1.8 2.5-.1 1.3-.2 2.8 0 4.4.4 5.2 2.7 7.7 6.3 8.3.2 0 .5.1.7.1v.1l-.4 4.1-1 9s-3.2 1-6.9 2.1c-.4.2-1.1.4-1.8.6z" class="st1"></path><path d="m336.6 199.5-6.5 4.5c-.3-7.1-1.5-10.8-5.1-15.6h.5c2.3 0 4.4 1 5.9 2.7 2.2 2.5 3.9 5.3 5.2 8.4z" class="st8"></path><path d="M332.3 167.5c-.3.6-.4.9-.4.9l-.3.9-3.5 11.6-.4 1.3H289.4c-.5-1.5-1-3.5-1.6-5.6-1-3.9-2-8.1-2.6-10.7-.4-1.6 0-3.3.9-4.7l11.9-17.8c.7-.2 1.4-.4 2-.6.1.4 3.5 9 12.7 9 9.4 0 14.7-5 15-7.5.8.4 1.7.8 2.6 1.2l-.1.1c-1.9 4.5-1.7 17.1 2.1 21.9zm-16.3-3.4 2.1-6.1h-23.3l-2.9 6.1H316z" class="st3"></path><path d="M330.2 211.5v1.8l-.6.1-2.5 3-.6-.6 2.6-3.9c0-.1.4-.2 1.1-.4z" class="st1"></path><path d="m329.5 213.3.6-.1c0 1.1 0 2.3-.1 3.6v1.7c-1.1-.7-2.1-1.5-3-2.2l2.5-3zM330.1 204.1l-4.1 2.8c-.1-7.5-.8-10.8-3.3-14.5-.6-.9-1.2-1.7-2-2.7l-1.2-1.3h5.5c3.6 4.8 4.8 8.6 5.1 15.7z" class="st1"></path><path d="M329.3 386.7c.9 0 .8 2.9 0 2.9h-7.7v-2.9h7.7z" class="st0"></path><path d="m324.7 378.4 4.6 8.3h-15.7l2.3-8.3h.1z" class="st3"></path><path d="M325.9 220.8c.1-1.8.1-3.2.1-4.1v-1.4l.4.4.6.6c.9.8 1.9 1.5 3 2.2-.6 20.5-5 138.7-5 139.9h-4.1v-.1c.1-1.1 4.2-111.5 5-137.5zM326.5 358.5l-.1 1.2-11.3 1.4-.1-2.6h10z" class="st1"></path><path d="m326.4 359.7-1.7 18.7H315.9l.1-.1-.9-17.2z" class="st0"></path><path d="m326.1 206.9-3.9 2.7h-.1c-2.8-6.2-2-12.8-2.1-17.1l2.8-.2c2.5 3.8 3.2 7.1 3.3 14.6z" class="st8"></path><path d="M298.6 261.1c-.4 5.4-.5 14.1-.2 21.5 0 0-9.3 28.3-10.1 31.6-.9 3.3-1.3 5.4-1.3 5.4l2.3 1.1c-.2.5-.3 1-.5 1.5-.9 4.6-.6 12.7-1.2 17.1-.6 4.4-3.9 7.5-6.1 11s-2 8.3-2 8.3H263s15.1-137.5 15.9-146.3c.1-.8.2-1.7.3-2.5.3-2.9.9-5.8 1.6-8.4l.2-.6c1.1-3.6 2.7-6.8 5.2-9.6 1.5-1.7 3.6-2.6 5.8-2.6H319.6l1.2 1.3c.8.9 1.4 1.8 2 2.7l-2.8.2c.1 4.2-.7 10.9 2.1 17.1.9 2 2.1 3.9 3.9 5.7v1.4c0 .9-.1 2.3-.1 4.1-.8 25.9-4.9 136.4-4.9 137.5v.1h-8.7s-7.8-49.2-11.1-70.7c-.7-4.4-1.2-7.6-1.4-9-.8-5.6-1.1-11.3-1.2-17.9z" class="st8"></path><path d="m325.5 182.2-1.2 3.5-.9 2.7h-30.7v-.3l-1.1-5.9zM327.6 144.3c-.3 2.4-5.6 7.5-15 7.5-9.2 0-12.5-8.6-12.7-9 3.7-1.1 6.9-2.1 6.9-2.1l1-9 7.2-5.8c2.5-1.9 4-5.4 4.5-10h.2l1.1 25.2c0-.2 3.1 1.4 6.8 3.2z" class="st0"></path><path d="M304.4 110.3c-.2 0-.5.2-.5.5s.2.4.5.4.5-.2.5-.4-.2-.5-.5-.5zm6.2 0c-.2 0-.5.2-.5.5s.2.4.5.4c.2 0 .5-.2.5-.4s-.3-.5-.5-.5zm4.4 15.5c-1.8 1.3-4 1.9-6.7 1.6-.2 0-.5-.1-.7-.1-3.6-.6-6-3.2-6.3-8.3-.1-1.6-.1-3.1 0-4.4.1-1.8.4-3.5.7-5.2.1-1.1.2-2.2.3-3.4 2.2-1.7 7.7-1.5 12.6-1.5.2 3.1 1.7 5.1 3.6 5.8l.2.4c.1 0 .2-.1.3-.1.3-.1.6-.2.9-.2 1.5 0 2.7 1.2 2.7 2.7 0 1.5-1.2 2.7-2.7 2.7h-.2c-.6 4.6-2.2 8.1-4.7 10zM321.6 386.7v2.9h-7.9c-.9 0-1.6-2.9 0-2.9h7.9zM318.1 158l-2.1 6.1h-24.2l3-6.1z" class="st0"></path><path d="m315 125.8-7.2 5.8.4-4.1v-.1c2.8.3 5.1-.3 6.8-1.6z" class="st1"></path><path d="M301.9 109.3c-.1 1.8-.4 3.4-.6 5.2-1-.4-1.8-1.4-1.8-2.5 0-1.4 1-2.5 2.4-2.7z" class="st0"></path><path d="M299.8 278.7c.2 1.4.7 4.7 1.4 9 0 0-.8 2.1-1.8 4.7-.5-2.5-.8-6-.9-9.9-.3-7.3-.2-16 .2-21.5 0 6.7.3 12.4 1.1 17.7z" class="st1"></path><path d="M299.4 292.5c-.8 2.2-1.8 4.9-2.5 7.1-1.6 5-1.2 7.5-2.3 12.7-1 4.5-3.9 5.2-5.2 8.3l-2.3-1.1s.4-2.1 1.3-5.4c.9-3.3 10.1-31.6 10.1-31.6.1 4 .4 7.5.9 10z" class="st8"></path><path d="m281 200.7-.2.6c-.8 2.7-1.3 5.5-1.6 8.4l-7.5 31.6c-.2.7-.2 1.5-.2 2.3.3 2.9.2 5.5.7 9.7.3 2.8-2 2.7-2 .6.1 1.7.2 3.5.1 5.2 0 1.4-.6 2.2-1.4 2.6-1.8.8-4.7-.7-5.1-1.8-.5-1.6-3-12.6-2-14.7l1.6-3.5c.4-.9.6-1.8.6-2.8l1.6-31c0-5.9.9-9 1.7-12.5 1.9-8.1 8.9-31.4 11.1-37.9 2.5-7.4 6.9-10.4 10.5-11.5.4-.1.9-.3 1.6-.5 1.9-.6 4.6-1.4 7.3-2.3L285.9 161c-.9 1.4-1.2 3.1-.9 4.7.6 2.6 1.6 6.9 2.6 10.7l-6.6 24.3z" class="st0"></path><path d="m276.4 358.5-.1.9-10.8 1.6.3-2.5z" class="st1"></path><path d="m276.3 359.4-2.8 17.5h-9.7l1.7-15.9zM272.2 389.6h-20.7c-.6 0-1.1-.5-1.1-1.1v-.8c0-.6.4-1.1 1-1.1l16.7-1.5 4.9-.4 1.7-.1c.6-.1 1.2.4 1.2 1.1v2.8c0 .6-.5 1.1-1.1 1.1h-2.6z" class="st0"></path><path d="m260.2 379.7 3.6-2.8h9.7l-.2 4.1c-1.6 0-5.1 1-5.1 4.1l-16.7 1.5 8.7-6.9z" class="st3"></path><path d="m273.2 381.1-.2 3.5v.1l-4.9.4c0-3 3.6-4 5.1-4z" class="st3"></path><g><path d="M273 384.7v-.1M281 200.7h0M290.7 145.6l-.1-.1M292.7 188.1v.3M301.3 114.5h-.1M301.9 109.3h0M308.3 127.4h0M316 378.4h-.1M318.6 110.6h0l-.2-.4M319.7 115.8h0-.2M320.9 358.4v.1M321.6 386.7v2.9M322.2 209.6l-.1.1M322.8 192.4l-2.8.2M326 215.3v.1M330.2 145.5l-.1.2M301.3 114.5c-.1 1.3-.2 2.8 0 4.4.4 5.2 2.7 7.7 6.3 8.3.2 0 .5.1.7.1 2.7.3 5-.2 6.7-1.6 2.5-1.9 4-5.4 4.5-10M318.8 110.3c-.1 0-.3-.1-.4-.1-1.9-.8-3.4-2.7-3.6-5.8-4.9 0-10.4-.2-12.6 1.5 0 1.2-.1 2.3-.3 3.4-.2 1.8-.5 3.4-.7 5.2" class="st9"></path><path d="M311.6 117.1c-.2 1.3-1.4 2.5-3 2.6M307.1 110.6l-.9 4.1 1.3.5M310.1 110.8c0 .2.2.4.5.4.2 0 .5-.2.5-.4s-.2-.5-.5-.5-.5.2-.5.5zM310.4 110.3h1.8M304 110.8c0-.2.2-.5.5-.5s.5.2.5.5-.2.4-.5.4-.5-.2-.5-.4zM304.6 110.3h-1.8M312.6 108.3h-3M305.3 108.3h-2.1M337.9 149.2c1 .5 1.7.8 2.1 1 2.4 1.1 4.5 2 7.8 4.9 3.2 2.9 19.2 18.3 21.7 21.1 5.1 5.7 9 15.4.1 20.3-4.9 2.7-20.6 8.4-30.9 12-3.8 1.3-6.9 2.4-8.5 2.9-.7.2-1.1.4-1.1.4l-2.6 3.9M317.3 111.7c.3-.5.7-.9 1.2-1.2.1 0 .2-.1.3-.1.3-.1.6-.2.9-.2 1.5 0 2.7 1.2 2.7 2.7 0 1.5-1.2 2.7-2.7 2.7l1.1 25.2s3.1 1.5 6.9 3.3c.8.4 1.7.8 2.6 1.2 2.8 1.4 5.7 2.8 7.7 3.7M301.2 114.5c-1-.4-1.8-1.4-1.8-2.5 0-1.4 1-2.5 2.4-2.7" class="st9"></path><path d="M320.8 113c0-.7-.5-1.2-1.2-1.2-.5 0-.9.2-1.1.6M300 142.7c-.7.2-1.3.4-2 .6-2.7.8-5.4 1.7-7.3 2.3-.6.2-1.2.4-1.6.5-3.6 1.2-8 4.1-10.5 11.5-2.2 6.5-9.2 29.8-11.1 37.9-.8 3.5-1.8 6.5-1.7 12.5l-1.6 31c0 1-.2 1.9-.6 2.8l-1.6 3.5c-.9 2.1 1.5 13.1 2 14.7.4 1.1 3.3 2.6 5.1 1.8.8-.4 1.3-1.1 1.4-2.6 0-1.7-.1-3.5-.1-5.2-.2-3-.4-5.8-.1-7.6M308.3 127.4l-.4 4.1-1 9s-3.2 1-6.9 2.1" class="st9"></path><path d="m315.2 125.6-.2.2-7.2 5.8" class="st9"></path><path d="M290.6 145.5s-.8-2.3-.5-5.3c.3-2.9 2.3-1.9 2.7-4.8.4-2.9-1.4-5.2-.7-7.9s2.7-2.4 3.2-5.5-.9-6-.3-10.8c.6-4.7 4.1-14.4 13.3-15 6.3-.4 11.3 2.2 12.5 5.5 0 0 4.6-.3 7.4 4.8 2.1 3.9.1 6.6.9 10.6s3.2 2 4.4 6.2c1.2 4.1-1.4 5.8 0 10.1 1.4 4.4 3.6 4.1 4.3 7.6.7 3.5-1.6 3.2-1.3 5.4.3 2 1.3 2.8 1.4 2.8 0 0 0 0 0 0M275.8 200.7c-2.2-.7-6.5-.4-6.5-.4M362.6 181.3l-4.5 3.1-21.5 15.1-6.5 4.6-4 2.8-3.9 2.7M332.4 167.6c2.6 2.7 6.6 4.8 10.8 6.9 5.4 2.8 11.2 5.6 14.9 9.9" class="st9"></path><path d="M333.7 145.4c-.1-1.5 2-1.8 1.6-3.7-.4-1.9-4.1-4.2-4.9-8-.7-3.8 1.1-6.6.5-8.9M327.6 144.3c-.3 2.4-5.6 7.5-15 7.5-9.2 0-12.5-8.6-12.7-9 0 0 0 0 0 0M331.6 169.3l.3-.9s.1-.4.4-.9c.4-.8 1.1-1.9 2.1-2.7M328 180.9l3.6-11.6M297.9 143.3h0L286 161.1c-.9 1.4-1.2 3.1-.9 4.7.6 2.6 1.6 6.9 2.6 10.7.5 2.1 1.1 4.1 1.6 5.6H327.6l.4-1.3" class="st9"></path><path d="M330.1 145.7c-1.8 4.4-1.7 17 2.1 21.8 0 .1.1.1.1.2M324.7 166.5c1.4 1.8 3 3.7 2.1 5.8s-3.2 2.2-.9 6.7M318.1 158h-23.3l-3 6.1H316zM343.2 174.5c-.9 5.6 3.4 5.2 1.2 11.1h-20.1" class="st9"></path><path d="m325.5 182.2-1.2 3.5-.9 2.7M291.6 182.2l1.1 5.9M280.9 201.3c-.8 2.7-1.3 5.5-1.6 8.4-.1.8-.2 1.6-.3 2.5-.8 8.8-15.9 146.3-15.9 146.3h16.4s-.2-4.8 2-8.3 5.5-6.6 6.1-11c.6-4.4.3-12.4 1.2-17.1.1-.6.3-1.1.5-1.5 1.3-3.2 4.2-3.8 5.2-8.3 1.2-5.2.8-7.7 2.3-12.7.7-2.3 1.7-4.9 2.5-7.1 1-2.7 1.8-4.7 1.8-4.7M336.6 199.5c-1.2-3.1-3-5.9-5.1-8.4-1.5-1.7-3.6-2.7-5.9-2.7H292c-2.2 0-4.4.9-5.8 2.6-2.4 2.8-4.1 6.1-5.2 9.6M297 209.7h1.9s.1 25.6-.2 38.2c-.1 4.8-.2 9.1-.1 13.2.1 6.6.4 12.2 1.2 17.6.2 1.4.7 4.7 1.4 9 3.3 21.5 11.1 70.7 11.1 70.7H328s6.9-39.1 7.3-46c.4-6.8-2.7-8.4-2.8-14.7-.1-6.3 2.6-5.3 2.7-10.9.2-5.6-.8-3.3-.8-21.4 0-17.8 4.1-41.3 4.2-53.9v-.8c0-.7 0-1.4-.1-2.1" class="st9"></path><path d="M317.3 203.3c-1.6 1.7-3.3 3.6-3.7 5.1-.3 1.4.1 5 .1 5M317.3 207.2s-1.4 1.4-1.9 2.3M327.6 220.5c-.5.1-1.1.2-1.8.4-2.3.6-5 1.8-5 1.8M308.8 269c-1.1 2.3-5.3 5.7-5.3 5.7M308.8 276c-1.2.2-3.7 1.3-3.7 1.3M320 192.6c.1 4.2-.7 10.9 2.1 17.1h0c.9 2 2.1 3.9 3.9 5.7l.4.4v0l.6.6c.9.8 1.9 1.5 3 2.2.3.2.6.4 1 .6M270.9 310.9c5 23.6-4-.5-1.6 13.5 1 5.9.1 15.7.1 15.7M298.6 261.1c-.4 5.4-.5 14.1-.2 21.5.2 3.9.5 7.5.9 9.9M298.4 282.6s-9.3 28.3-10.1 31.6c-.9 3.3-1.3 5.4-1.3 5.4M285.9 323.9l-8.1 26.8M287.8 176.6l-6.8 24.1-.1.6M279.2 209.7l-7.5 31.6c-.2.7-.2 1.5-.2 2.3.3 2.9.2 5.5.7 9.7.3 2.8-2 2.7-2 .6M326.5 358.5l-.1 1.2-1.7 18.7 4.6 8.3h-15.7l2.3-8.3.1-.1-.9-17.2-.1-2.6M324.7 378.4H316h0M329.3 386.7c.9 0 .8 2.9 0 2.9H313.7c-.9 0-1.6-2.9 0-2.9M325.3 382.6h-6.5M326.4 359.7l-11.3 1.4h0M276.4 358.5l-.1.9-2.8 17.5-.3 4.2-.2 3.5M273 384.7l1.7-.1c.6-.1 1.2.4 1.2 1.1v2.8c0 .6-.5 1.1-1.1 1.1h-23.4c-.6 0-1.1-.5-1.1-1.1v-.8c0-.6.4-1.1 1-1.1l16.7-1.5 5-.4z" class="st9"></path><path d="M273.5 376.9h-9.7l-3.6 2.8-8.8 6.9" class="st9"></path><path d="m262 381.1-1.8-1.4-1.6-1.2M273.2 381.1c-1.6 0-5.1 1-5.1 4.1M274.3 389.6v-3M272.2 389.6v-2.5M270.2 389.6v-2.1M263.8 376.9l1.7-15.9.3-2.5M276.3 359.4l-10.8 1.6M326.1 206.9c-.1-7.5-.8-10.8-3.3-14.5-.6-.9-1.2-1.7-2-2.7l-1.2-1.3M320.9 358.4c.1-1.2 4.2-111.6 4.9-137.5.1-1.8.1-3.2.1-4.1v-1.4M330.2 211.5v1.8c0 1.1 0 2.3-.1 3.6v1.7c-.6 20.5-5 138.7-5 139.9M325.1 188.4c3.6 4.8 4.8 8.6 5.1 15.6M267.5 247.4l-4.1-.4M269.1 261.7s-.8-3.4-.8-7M267.2 261.7s-.8-3.4-.8-7M265.3 261s-.8-3.4-.8-7" class="st9"></path><path d="M338.7 211.5h0l-8.5 1.7-.7.1-2.4 3" class="st9"></path></g></g></g></svg>