<svg width="24" height="24" viewBox="0 0 24 24" fill="none" xmlns="http://www.w3.org/2000/svg">
<g clip-path="url(#clip0_24_18)">
<path d="M5.57098 2.31C5.75357 2.31057 5.92916 2.38031 6.0624 2.50516C6.19563 2.63001 6.27661 2.8007 6.28904 2.98287C6.30146 3.16504 6.2444 3.34515 6.12935 3.48693C6.0143 3.62872 5.8498 3.72164 5.66898 3.747L5.57098 3.753H4.04598C3.63904 3.76112 3.24979 3.92083 2.95441 4.20086C2.65903 4.48089 2.47879 4.86107 2.44898 5.267L2.44398 5.433V19.891C2.43592 20.2948 2.57769 20.6873 2.84195 20.9927C3.1062 21.2982 3.47422 21.4949 3.87498 21.545L4.03198 21.556H20.954C21.3608 21.5479 21.7499 21.3883 22.0452 21.1085C22.3406 20.8287 22.5209 20.4487 22.551 20.043L22.556 19.876V5.42C22.5643 5.01603 22.4226 4.6233 22.1584 4.31765C21.8941 4.012 21.5259 3.81511 21.125 3.765L20.968 3.755H19.428C19.2442 3.75607 19.0669 3.687 18.9323 3.56188C18.7976 3.43675 18.7158 3.26499 18.7034 3.0816C18.691 2.89822 18.7491 2.71702 18.8657 2.57495C18.9823 2.43287 19.1487 2.34062 19.331 2.317L19.429 2.311H20.982C21.7612 2.32597 22.5058 2.636 23.0654 3.1785C23.6249 3.72101 23.9579 4.4556 23.997 5.234L24 5.434V19.863C24.0151 20.6457 23.7313 21.4048 23.2065 21.9858C22.6817 22.5667 21.9552 22.9258 21.175 22.99L20.968 23.001H4.01798C3.23857 22.986 2.49389 22.6758 1.93428 22.1331C1.37467 21.5904 1.04184 20.8556 1.00298 20.077L0.999981 19.877V5.448C0.984641 4.66493 1.2684 3.90546 1.79346 3.32429C2.31851 2.74312 3.04537 2.38397 3.82598 2.32L4.03298 2.31H5.57298H5.57098ZM17.89 17.322C18.0354 17.322 18.1793 17.3506 18.3136 17.4063C18.4479 17.4619 18.57 17.5434 18.6727 17.6462C18.7755 17.749 18.8571 17.8711 18.9127 18.0054C18.9683 18.1397 18.997 18.2836 18.997 18.429C18.997 18.5744 18.9683 18.7183 18.9127 18.8526C18.8571 18.9869 18.7755 19.109 18.6727 19.2118C18.57 19.3146 18.4479 19.3961 18.3136 19.4517C18.1793 19.5074 18.0354 19.536 17.89 19.536C17.5964 19.536 17.3148 19.4194 17.1072 19.2118C16.8996 19.0042 16.783 18.7226 16.783 18.429C16.783 18.1354 16.8996 17.8538 17.1072 17.6462C17.3148 17.4386 17.5964 17.322 17.89 17.322ZM12.501 17.322C12.6464 17.322 12.7903 17.3506 12.9246 17.4063C13.0589 17.4619 13.181 17.5434 13.2837 17.6462C13.3865 17.749 13.4681 17.8711 13.5237 18.0054C13.5793 18.1397 13.608 18.2836 13.608 18.429C13.608 18.5744 13.5793 18.7183 13.5237 18.8526C13.4681 18.9869 13.3865 19.109 13.2837 19.2118C13.181 19.3146 13.0589 19.3961 12.9246 19.4517C12.7903 19.5074 12.6464 19.536 12.501 19.536C12.2074 19.536 11.9258 19.4194 11.7182 19.2118C11.5106 19.0042 11.394 18.7226 11.394 18.429C11.394 18.1354 11.5106 17.8538 11.7182 17.6462C11.9258 17.4386 12.2074 17.322 12.501 17.322ZM7.11198 17.322C7.25735 17.322 7.4013 17.3506 7.53561 17.4063C7.66992 17.4619 7.79195 17.5434 7.89475 17.6462C7.99754 17.749 8.07908 17.8711 8.13472 18.0054C8.19035 18.1397 8.21898 18.2836 8.21898 18.429C8.21898 18.5744 8.19035 18.7183 8.13472 18.8526C8.07908 18.9869 7.99754 19.109 7.89475 19.2118C7.79195 19.3146 7.66992 19.3961 7.53561 19.4517C7.4013 19.5074 7.25735 19.536 7.11198 19.536C6.81839 19.536 6.53682 19.4194 6.32921 19.2118C6.12161 19.0042 6.00498 18.7226 6.00498 18.429C6.00498 18.1354 6.12161 17.8538 6.32921 17.6462C6.53682 17.4386 6.81839 17.322 7.11198 17.322ZM17.89 12.702C18.1836 12.702 18.4651 12.8186 18.6727 13.0262C18.8804 13.2338 18.997 13.5154 18.997 13.809C18.997 14.1026 18.8804 14.3842 18.6727 14.5918C18.4651 14.7994 18.1836 14.916 17.89 14.916C17.6023 14.9074 17.3293 14.787 17.1288 14.5804C16.9284 14.3739 16.8162 14.0973 16.8162 13.8095C16.8162 13.5217 16.9284 13.2451 17.1288 13.0386C17.3293 12.832 17.6023 12.7117 17.89 12.703V12.702ZM12.501 12.702C12.7946 12.702 13.0761 12.8186 13.2837 13.0262C13.4914 13.2338 13.608 13.5154 13.608 13.809C13.608 14.1026 13.4914 14.3842 13.2837 14.5918C13.0761 14.7994 12.7946 14.916 12.501 14.916C12.2133 14.9074 11.9403 14.787 11.7398 14.5804C11.5394 14.3739 11.4272 14.0973 11.4272 13.8095C11.4272 13.5217 11.5394 13.2451 11.7398 13.0386C11.9403 12.832 12.2133 12.7117 12.501 12.703V12.702ZM7.11198 12.702C7.40558 12.702 7.68714 12.8186 7.89475 13.0262C8.10235 13.2338 8.21898 13.5154 8.21898 13.809C8.21898 14.1026 8.10235 14.3842 7.89475 14.5918C7.68714 14.7994 7.40558 14.916 7.11198 14.916C6.82428 14.9074 6.55125 14.787 6.35081 14.5804C6.15036 14.3739 6.03825 14.0973 6.03825 13.8095C6.03825 13.5217 6.15036 13.2451 6.35081 13.0386C6.55125 12.832 6.82428 12.7117 7.11198 12.703V12.702ZM17.89 8.085C18.0381 8.08055 18.1856 8.10587 18.3237 8.15948C18.4619 8.21308 18.5878 8.29387 18.6942 8.39706C18.8005 8.50025 18.885 8.62373 18.9428 8.7602C19.0005 8.89666 19.0302 9.04333 19.0302 9.1915C19.0302 9.33967 19.0005 9.48634 18.9428 9.6228C18.885 9.75927 18.8005 9.88275 18.6942 9.98594C18.5878 10.0891 18.4619 10.1699 18.3237 10.2235C18.1856 10.2771 18.0381 10.3025 17.89 10.298C17.6023 10.2894 17.3293 10.169 17.1288 9.96242C16.9284 9.75585 16.8162 9.47933 16.8162 9.1915C16.8162 8.90367 16.9284 8.62715 17.1288 8.42058C17.3293 8.21402 17.6023 8.09365 17.89 8.085ZM12.501 8.085C12.6491 8.08055 12.7966 8.10587 12.9347 8.15948C13.0729 8.21308 13.1988 8.29387 13.3052 8.39706C13.4115 8.50025 13.496 8.62373 13.5538 8.7602C13.6115 8.89666 13.6412 9.04333 13.6412 9.1915C13.6412 9.33967 13.6115 9.48634 13.5538 9.6228C13.496 9.75927 13.4115 9.88275 13.3052 9.98594C13.1988 10.0891 13.0729 10.1699 12.9347 10.2235C12.7966 10.2771 12.6491 10.3025 12.501 10.298C12.2133 10.2894 11.9403 10.169 11.7398 9.96242C11.5394 9.75585 11.4272 9.47933 11.4272 9.1915C11.4272 8.90367 11.5394 8.62715 11.7398 8.42058C11.9403 8.21402 12.2133 8.09365 12.501 8.085ZM7.87998 0C8.24598 0 8.54798 0.272 8.59598 0.624L8.60298 0.722V4.572C8.60216 4.75451 8.53225 4.92993 8.40732 5.06298C8.28239 5.19603 8.11171 5.27683 7.92961 5.28912C7.74752 5.30141 7.56753 5.24428 7.42585 5.12923C7.28417 5.01418 7.19132 4.84974 7.16598 4.669L7.15898 4.571V0.721C7.15898 0.323 7.48098 0 7.87998 0ZM17.12 0C17.484 0 17.786 0.272 17.834 0.624L17.841 0.722V4.572C17.8402 4.75451 17.7703 4.92993 17.6453 5.06298C17.5204 5.19603 17.3497 5.27683 17.1676 5.28912C16.9855 5.30141 16.8055 5.24428 16.6638 5.12923C16.5222 5.01418 16.4293 4.84974 16.404 4.669L16.397 4.571V0.721C16.397 0.323 16.72 0 17.119 0H17.12ZM14.81 2.31C14.9925 2.31082 15.1679 2.38073 15.301 2.50566C15.434 2.63059 15.5148 2.80127 15.5271 2.98337C15.5394 3.16546 15.4823 3.34545 15.3672 3.48713C15.2522 3.62881 15.0877 3.72166 14.907 3.747L14.81 3.753H10.19C10.0075 3.75218 9.83205 3.68227 9.699 3.55734C9.56595 3.43241 9.48515 3.26173 9.47286 3.07963C9.46057 2.89754 9.5177 2.71755 9.63275 2.57587C9.7478 2.43419 9.91224 2.34134 10.093 2.316L10.19 2.31H14.81Z" fill="white"/>
</g>
<defs>
<clipPath id="clip0_24_18">
<rect width="24" height="24" fill="white"/>
</clipPath>
</defs>
</svg>
