<svg width="48" height="48" viewBox="0 0 48 48" fill="none" xmlns="http://www.w3.org/2000/svg">
<g clip-path="url(#clip0_7_382)">
<path d="M24.0001 4.32187C30.4126 4.32187 31.172 4.35 33.6939 4.4625C36.0376 4.56562 37.3032 4.95938 38.147 5.2875C39.2626 5.71875 40.0689 6.24375 40.9032 7.07812C41.747 7.92188 42.2626 8.71875 42.6939 9.83438C43.022 10.6781 43.4157 11.9531 43.5189 14.2875C43.6314 16.8187 43.6595 17.5781 43.6595 23.9813C43.6595 30.3938 43.6314 31.1531 43.5189 33.675C43.4157 36.0188 43.022 37.2844 42.6939 38.1281C42.2626 39.2438 41.7376 40.05 40.9032 40.8844C40.0595 41.7281 39.2626 42.2438 38.147 42.675C37.3032 43.0031 36.0282 43.3969 33.6939 43.5C31.1626 43.6125 30.4032 43.6406 24.0001 43.6406C17.5876 43.6406 16.8282 43.6125 14.3064 43.5C11.9626 43.3969 10.697 43.0031 9.85325 42.675C8.73762 42.2438 7.93137 41.7188 7.097 40.8844C6.25325 40.0406 5.73762 39.2438 5.30637 38.1281C4.97825 37.2844 4.5845 36.0094 4.48137 33.675C4.36887 31.1438 4.34075 30.3844 4.34075 23.9813C4.34075 17.5688 4.36887 16.8094 4.48137 14.2875C4.5845 11.9437 4.97825 10.6781 5.30637 9.83438C5.73762 8.71875 6.26262 7.9125 7.097 7.07812C7.94075 6.23438 8.73762 5.71875 9.85325 5.2875C10.697 4.95938 11.972 4.56562 14.3064 4.4625C16.8282 4.35 17.5876 4.32187 24.0001 4.32187ZM24.0001 0C17.4845 0 16.6689 0.028125 14.1095 0.140625C11.5595 0.253125 9.80637 0.665625 8.28762 1.25625C6.70325 1.875 5.36262 2.69062 4.03137 4.03125C2.69075 5.3625 1.87512 6.70313 1.25637 8.27813C0.665747 9.80625 0.253247 11.55 0.140747 14.1C0.0282471 16.6687 0.00012207 17.4844 0.00012207 24C0.00012207 30.5156 0.0282471 31.3312 0.140747 33.8906C0.253247 36.4406 0.665747 38.1938 1.25637 39.7125C1.87512 41.2969 2.69075 42.6375 4.03137 43.9688C5.36262 45.3 6.70325 46.125 8.27825 46.7344C9.80637 47.325 11.5501 47.7375 14.1001 47.85C16.6595 47.9625 17.4751 47.9906 23.9907 47.9906C30.5064 47.9906 31.322 47.9625 33.8814 47.85C36.4314 47.7375 38.1845 47.325 39.7033 46.7344C41.2783 46.125 42.6189 45.3 43.9501 43.9688C45.2814 42.6375 46.1064 41.2969 46.7157 39.7219C47.3064 38.1938 47.7189 36.45 47.8314 33.9C47.9439 31.3406 47.972 30.525 47.972 24.0094C47.972 17.4938 47.9439 16.6781 47.8314 14.1188C47.7189 11.5688 47.3064 9.81563 46.7157 8.29688C46.1251 6.70312 45.3095 5.3625 43.9689 4.03125C42.6376 2.7 41.297 1.875 39.722 1.26562C38.1939 0.675 36.4501 0.2625 33.9001 0.15C31.3314 0.028125 30.5157 0 24.0001 0Z" fill="white"/>
<path d="M24.0001 11.6719C17.1939 11.6719 11.672 17.1938 11.672 24C11.672 30.8062 17.1939 36.3281 24.0001 36.3281C30.8064 36.3281 36.3282 30.8062 36.3282 24C36.3282 17.1938 30.8064 11.6719 24.0001 11.6719ZM24.0001 31.9969C19.5845 31.9969 16.0032 28.4156 16.0032 24C16.0032 19.5844 19.5845 16.0031 24.0001 16.0031C28.4157 16.0031 31.997 19.5844 31.997 24C31.997 28.4156 28.4157 31.9969 24.0001 31.9969Z" fill="white"/>
<path d="M39.6939 11.1843C39.6939 12.778 38.4001 14.0624 36.8157 14.0624C35.222 14.0624 33.9376 12.7687 33.9376 11.1843C33.9376 9.59053 35.2314 8.30615 36.8157 8.30615C38.4001 8.30615 39.6939 9.5999 39.6939 11.1843Z" fill="white"/>
</g>
<defs>
<clipPath id="clip0_7_382">
<rect width="48" height="48" fill="white"/>
</clipPath>
</defs>
</svg>
