<svg width="51" height="50" viewBox="0 0 51 50" fill="none" xmlns="http://www.w3.org/2000/svg">
<g clip-path="url(#clip0_25_20)">
<path fill-rule="evenodd" clip-rule="evenodd" d="M6.5528 6.34579C6.67958 8.07502 6.76429 18.439 4.17799 26.5391H12.113C9.52693 18.439 9.61165 8.07502 9.73814 6.34608C9.74275 6.28415 9.72258 6.22513 9.68137 6.18014C9.63988 6.13457 9.58283 6.10974 9.52088 6.10974H6.77005C6.7081 6.10974 6.65105 6.13457 6.60985 6.18014C6.56836 6.22513 6.54848 6.28415 6.5528 6.34579ZM15.7971 39.0971C15.7824 38.249 15.6855 35.2562 15.0626 32.8364C14.4938 30.6245 12.6523 27.6072 12.2772 27.0062H3.95929C3.59019 27.6127 1.79683 30.6271 1.22834 32.8364C0.605392 35.2574 0.508867 38.249 0.493884 39.0971H15.7971ZM3.63658 26.6475L3.67807 26.5812C6.07305 19.2272 6.29031 9.07066 6.09322 6.38056C6.0791 6.19037 6.14422 6.00135 6.27187 5.86199C6.39951 5.72235 6.58132 5.6423 6.77005 5.6423H9.52088C9.70961 5.6423 9.89143 5.72235 10.0194 5.86199C10.1467 6.00135 10.2121 6.19037 10.198 6.38085C9.99976 9.08468 10.2193 19.3356 12.65 26.6983L12.6714 26.7632C13.0719 27.4018 14.918 30.4209 15.5089 32.718C16.2537 35.6132 16.261 39.294 16.261 39.3311V39.5645H0.0302734V39.3311C0.0302734 39.294 0.0371887 35.6132 0.782019 32.718C1.43205 30.1921 3.54697 26.7909 3.63658 26.6475ZM11.6272 29.429C11.7479 29.3861 11.879 29.4515 11.9202 29.5734C11.9357 29.6192 13.4758 34.1764 13.4323 38.0395C13.4309 38.1678 13.328 38.2706 13.2018 38.2706H13.1995C13.0719 38.2692 12.9702 38.1634 12.9716 38.0343C13.0137 34.2515 11.4998 29.7711 11.4848 29.7264C11.443 29.6043 11.507 29.4714 11.6272 29.429ZM11.0973 24.5288C11.2243 24.5288 11.3278 24.6378 11.3278 24.7723C11.3278 24.9068 11.2243 25.0157 11.0973 25.0157H7.67595C7.5486 25.0157 7.44544 24.9068 7.44544 24.7723C7.44544 24.6378 7.5486 24.5288 7.67595 24.5288H11.0973ZM8.30668 23.5372C8.17961 23.5372 8.07617 23.4282 8.07617 23.2936C8.07617 23.1593 8.17961 23.0503 8.30668 23.0503H10.466C10.5933 23.0503 10.6965 23.1593 10.6965 23.2936C10.6965 23.4282 10.5933 23.5372 10.466 23.5372H8.30668ZM46.3357 37.9314C48.0259 37.9314 49.4009 35.9679 49.4009 33.5548C49.4009 31.1413 48.0259 29.1781 46.3357 29.1781C44.6452 29.1781 43.2702 31.1413 43.2702 33.5548C43.2702 35.9679 44.6452 37.9314 46.3357 37.9314ZM46.3357 28.7106C48.28 28.7106 49.8619 30.8836 49.8619 33.5548C49.8619 36.2256 48.28 38.3986 46.3357 38.3986C44.3913 38.3986 42.8092 36.2256 42.8092 33.5548C42.8092 30.8836 44.3913 28.7106 46.3357 28.7106ZM37.7827 37.9311C39.4723 37.8955 40.8069 35.9036 40.7577 33.4911C40.709 31.1136 39.3144 29.1795 37.649 29.1795L37.6034 29.1798C35.9138 29.2155 34.5792 31.2073 34.6284 33.6199C34.6774 35.9974 36.072 37.9317 37.7371 37.9317L37.7827 37.9311ZM37.649 28.7121C39.5636 28.7121 41.1648 30.8515 41.2187 33.4814C41.2731 36.1517 39.7362 38.3577 37.7922 38.3986L37.7371 38.3992C35.8228 38.3992 34.2216 36.2595 34.1674 33.6298C34.113 30.9593 35.6499 28.7536 37.5939 28.7127L37.649 28.7121ZM50.3684 33.5857L50.3673 33.5439L50.3684 33.5098C50.3684 31.2988 49.3891 29.3282 47.8723 28.4825L47.83 28.4658C47.3522 28.2043 46.85 28.072 46.3365 28.072C46.1213 28.072 45.9115 28.1111 45.6891 28.1526C45.2269 28.2385 44.7489 28.3279 44.2248 28.0551C43.656 27.7585 43.2665 27.1485 43.1284 26.3369C43.002 25.615 42.8314 18.836 42.8247 17.3461C42.7847 8.39667 42.1522 4.7714 41.8301 3.50026C41.5051 4.68288 40.9043 8.05691 40.8646 16.9017V17.1731L42.0799 18.3356L42.0811 18.4346C42.0825 18.5497 42.228 29.9786 42.228 33.2389C42.23 33.331 42.2309 33.4209 42.2312 33.5092C42.2554 34.5852 42.4309 35.4482 42.7648 36.1411C43.4719 37.9624 44.8307 39.0886 46.3181 39.0971L46.3628 39.0965C46.7356 39.0907 47.0799 39.0238 47.411 38.8961C49.1528 38.2379 50.3684 36.0541 50.3684 33.5857ZM41.3089 36.0836C41.6313 35.3763 41.771 34.6009 41.7699 33.5144C41.7679 33.4245 41.767 33.3336 41.767 33.2413C41.767 30.1492 41.6356 19.6742 41.6212 18.5395L40.8637 17.815C40.86 20.066 40.8412 25.691 40.7516 26.2727C40.63 27.0863 40.2529 27.7045 39.6904 28.0127C39.1726 28.2964 38.6923 28.2175 38.2287 28.1409C38.0054 28.1041 37.7927 28.0688 37.5801 28.074C37.0672 28.0849 36.5673 28.2277 36.0948 28.4991L36.0515 28.5181C34.5613 29.3782 33.6151 31.3759 33.6603 33.5959L33.662 33.6313V33.6614C33.7125 36.1394 34.9725 38.2972 36.7258 38.9183C37.0609 39.0393 37.4 39.0948 37.7536 39.0959L37.8054 39.0968C39.3109 39.0565 40.6464 37.9022 41.3089 36.0836ZM48.0737 28.0615C49.7475 28.982 50.8292 31.1209 50.8292 33.5101V33.5857C50.8292 36.2454 49.4905 38.6092 47.5735 39.3337C47.1926 39.4804 46.7955 39.5575 46.3942 39.5622C46.3933 39.564 46.3631 39.5645 46.3365 39.5645C44.6354 39.5549 43.1135 38.3153 42.3433 36.3293C42.2142 36.0623 42.1073 35.771 42.0217 35.4537C41.9471 35.7389 41.852 36.0053 41.7342 36.263C41.0118 38.2472 39.5158 39.5187 37.8365 39.5637C37.7893 39.5645 37.7585 39.5645 37.7317 39.5619C37.3487 39.5707 36.9574 39.4979 36.5725 39.3589C34.6426 38.6752 33.2555 36.3401 33.201 33.681L33.1996 33.6056C33.1506 31.2167 34.1882 29.0557 35.8432 28.1L35.883 28.0816C36.4074 27.7825 36.9805 27.6189 37.5706 27.6066C37.8253 27.6016 38.0685 27.6411 38.3025 27.6796C38.7257 27.7495 39.0917 27.8094 39.4711 27.6013C40.0252 27.2981 40.2255 26.6729 40.2961 26.2017C40.3796 25.6577 40.403 19.8802 40.4038 16.9008C40.4583 4.70275 41.5961 2.75032 41.6445 2.67319L41.7125 2.5651H41.9799L42.0557 2.69218C42.1038 2.78713 43.2316 5.15821 43.2858 17.344C43.293 19.0093 43.4682 25.6036 43.5825 26.2563C43.648 26.6416 43.8459 27.332 44.4354 27.6393C44.8201 27.8394 45.1837 27.7714 45.6058 27.6928C45.8386 27.6493 46.0795 27.6046 46.3365 27.6046C46.9189 27.6046 47.4876 27.7518 48.0265 28.0422L48.0737 28.0615ZM41.8321 16.3159C42.037 16.3159 42.2038 16.1468 42.2038 15.9388C42.2038 15.7311 42.037 15.5619 41.8321 15.5619C41.627 15.5619 41.4601 15.7311 41.4601 15.9388C41.4601 16.1468 41.627 16.3159 41.8321 16.3159ZM41.8321 15.0945C42.2914 15.0945 42.6645 15.4734 42.6645 15.9388C42.6645 16.4045 42.2914 16.7834 41.8321 16.7834C41.3728 16.7834 40.9991 16.4045 40.9991 15.9388C40.9991 15.4734 41.3728 15.0945 41.8321 15.0945ZM49.8604 46.3853V46.3257C49.8604 44.898 48.7154 43.7364 47.3084 43.7364L47.2681 43.7367C44.708 43.7776 40.6577 43.8431 36.1648 43.9175V48.7935C40.6577 48.868 44.708 48.9332 47.2681 48.9741L47.3084 48.9743C48.7154 48.9743 49.8604 47.8128 49.8604 46.3853ZM14.8955 48.4257C15.0358 48.428 15.1787 48.431 15.3251 48.4336L15.5008 48.4368L15.1934 48.052L14.8955 48.4257ZM13.5081 48.3982C13.7666 48.4026 14.0432 48.4088 14.3348 48.4155L14.5298 48.4199L15.0081 47.8201L14.0242 46.5875L13.0399 47.8198L13.5009 48.3979L13.5081 48.3982ZM7.84941 44.7061C4.28892 45.2159 2.76814 46.0792 2.35726 46.3555C2.7667 46.631 4.28719 47.4946 7.8497 48.0047L9.16475 46.3561L7.84941 44.7061ZM11.8724 46.3555L12.8549 47.5875L13.8386 46.3555L12.8549 45.1232L11.8724 46.3555ZM10.5181 48.0538L10.3475 48.2679C10.466 48.2761 10.5861 48.2843 10.708 48.2922L10.5181 48.0538ZM10.5193 45.1232L9.53529 46.3561L10.5181 47.589L11.5018 46.3552L10.5193 45.1232ZM10.5193 44.6584L10.7103 44.4189C10.5876 44.4265 10.4671 44.4347 10.3475 44.4431L10.5193 44.6584ZM12.5959 44.3347L12.8546 44.6587L13.1234 44.3219C12.9537 44.326 12.7624 44.3306 12.5959 44.3347ZM11.1151 44.394C11.1102 44.3943 11.1053 44.3946 11.1002 44.3949L10.7045 44.8907L11.6871 46.123L12.6693 44.891L12.2337 44.3456C11.8453 44.3564 11.475 44.3724 11.1151 44.394ZM9.99717 44.4685C9.3797 44.5197 8.78383 44.5857 8.18595 44.6634L9.35002 46.1239L10.3337 44.8907L9.99717 44.4685ZM8.18624 48.0471C8.77893 48.1242 9.3846 48.1914 9.99688 48.2422L10.3328 47.8212L9.35002 46.5884L8.18624 48.0471ZM12.8546 48.052L12.5959 48.376C12.7627 48.3804 12.9537 48.3848 13.1232 48.3889L12.8546 48.052ZM12.2337 48.3652L12.6693 47.8198L11.6871 46.5878L10.7034 47.8215L11.0976 48.3158C11.1025 48.3161 11.1071 48.3167 11.1123 48.317C11.4759 48.3383 11.847 48.3547 12.2337 48.3652ZM14.3348 44.2953C14.0432 44.302 13.7666 44.3082 13.5061 44.3125L13.5009 44.3128L13.0399 44.891L14.0242 46.1233L15.0081 44.8907L14.5295 44.2909L14.3348 44.2953ZM15.326 44.2772C15.177 44.2801 15.0381 44.2822 14.8949 44.2848L15.1934 44.6587L15.5008 44.274L15.326 44.2772ZM24.6797 47.9784L24.1818 48.5922C24.5181 48.5984 24.8566 48.6042 25.1981 48.6095L24.6797 47.9784ZM22.266 48.1283L21.9171 48.5534L22.6146 48.565L22.266 48.1283ZM19.8693 48.0517L19.5033 48.5101C19.7477 48.5145 19.9949 48.5189 20.2459 48.5239L19.8693 48.0517ZM17.5316 48.0535L17.2008 48.4683C17.4213 48.4727 17.6452 48.4771 17.8728 48.4812L17.5316 48.0535ZM16.1768 46.3555L15.1937 45.1232L14.2094 46.3555L15.1937 47.5878L16.1768 46.3555ZM17.5316 44.6573L17.8728 44.2299C17.6449 44.2337 17.421 44.238 17.2008 44.2427L17.5316 44.6573ZM18.5159 46.3555L17.5316 45.1218L16.5471 46.3555L17.5316 47.5893L18.5159 46.3555ZM19.8693 44.659L20.2459 44.1869C19.9952 44.1919 19.7477 44.1966 19.5033 44.2006L19.8693 44.659ZM20.8518 46.3555L19.869 45.1235L18.8864 46.3555L19.869 47.5872L20.8518 46.3555ZM22.266 44.5825L22.6146 44.1457L21.9171 44.1577L22.266 44.5825ZM23.3471 46.3555L22.2694 45.0432L21.2224 46.3555L22.2694 47.6679L23.3471 46.3555ZM24.68 44.7324L25.1978 44.1019C24.8566 44.1072 24.5181 44.113 24.1824 44.1191L24.68 44.7324ZM25.6236 46.3547L24.6788 45.1904L23.7222 46.3555L24.6785 47.52L25.6236 46.3547ZM25.5867 44.0955H25.5781L24.8664 44.962L25.8101 46.1247L27.481 44.0639C26.8447 44.0736 26.2111 44.0841 25.5867 44.0955ZM23.8147 44.1253L22.9904 44.1393L22.4541 44.8115L23.5346 46.1271L24.4924 44.9605L23.8147 44.1253ZM20.6274 44.1796H20.6222L20.0545 44.8913L21.0371 46.123L22.0813 44.8142L21.5474 44.1638L20.6274 44.1796ZM18.254 44.2231H18.2485L17.7169 44.8895L18.7012 46.1233L19.6837 44.8916L19.1377 44.2071L18.254 44.2231ZM16.8364 44.2503L15.8772 44.2673L15.379 44.8913L16.3621 46.1233L17.3464 44.8895L16.8364 44.2503ZM15.8772 48.4435L16.8364 48.4608L17.3464 47.8215L16.3621 46.5875L15.379 47.8198L15.8772 48.4435ZM18.2534 48.4876L19.1377 48.5037L19.6837 47.8195L18.7012 46.5875L17.7169 47.8215L18.2485 48.4876H18.2534ZM20.6282 48.5312L21.5474 48.5469L22.0813 47.8966L21.0371 46.5878L20.0545 47.8195L20.6222 48.5312H20.6282ZM22.9904 48.5715L23.8147 48.5855L24.4921 47.75L23.5346 46.5837L22.4541 47.8992L22.9904 48.5715ZM25.5856 48.6153C26.2123 48.6267 26.8479 48.6372 27.4838 48.6471L25.8101 46.5843L24.8661 47.7485L25.5781 48.6153H25.5856ZM27.8685 48.6536C30.4851 48.6986 33.1587 48.7436 35.7038 48.7859V43.9251C33.159 43.9672 30.4853 44.0122 27.8691 44.0572C27.8656 44.0575 27.8624 44.0575 27.859 44.0575L25.9965 46.3547L27.8619 48.6533C27.8642 48.6536 27.8662 48.6536 27.8685 48.6536ZM47.3084 43.269C48.9698 43.269 50.3215 44.6403 50.3215 46.3257V46.3853C50.3215 48.0707 48.9698 49.4418 47.3084 49.4418L47.2609 49.4415C43.1725 49.3761 35.2848 49.2484 27.861 49.1207C27.0951 49.1099 26.3313 49.0962 25.5784 49.0827C24.9817 49.0746 24.389 49.0637 23.8072 49.0529L20.6196 48.9986C20.1292 48.9881 19.6523 48.9802 19.1881 48.9723L18.2453 48.9551C17.7578 48.9469 17.2856 48.9387 16.8297 48.9279L15.3159 48.901C15.0427 48.8958 14.7794 48.8905 14.5255 48.8873L14.3244 48.8829C14.034 48.8762 13.7582 48.8701 13.4983 48.8654L13.22 48.859C12.8808 48.8508 12.3803 48.8388 12.2236 48.8327C11.8326 48.8218 11.4548 48.8055 11.0883 48.7836C10.7017 48.7617 10.3328 48.7371 9.97787 48.71C9.24456 48.6492 8.5176 48.5694 7.81541 48.4721C3.36429 47.8396 1.99161 46.6711 1.93543 46.6217L1.8559 46.5519V46.1592L1.93543 46.0894C1.99161 46.0397 3.36429 44.8714 7.81454 44.2386C8.53143 44.1396 9.23765 44.0619 9.97383 44.0011C10.3329 43.9736 10.7045 43.9491 11.0886 43.9272C11.4549 43.9053 11.8326 43.8889 12.2262 43.8781C12.3881 43.8717 12.9313 43.8588 13.269 43.8507L13.4966 43.8454C13.7582 43.841 14.034 43.8346 14.3244 43.8282L14.5232 43.8238C14.7796 43.8203 15.0433 43.815 15.3167 43.8097L16.8315 43.7829C17.2856 43.7721 17.7578 43.7639 18.2459 43.7557L19.1881 43.7385C19.6523 43.7306 20.1292 43.7227 20.6187 43.7122L23.8069 43.6578C24.389 43.647 24.9817 43.6362 25.5795 43.628C26.3313 43.6146 27.0925 43.6009 27.8593 43.5901C35.2848 43.4624 43.1725 43.3347 47.2609 43.2696L47.3084 43.269ZM40.4476 44.4133C40.5802 44.4133 40.6882 44.5179 40.6882 44.647V47.5425C40.6882 47.6717 40.5802 47.7762 40.4476 47.7762C40.315 47.7762 40.207 47.6717 40.207 47.5425V44.647C40.207 44.5179 40.315 44.4133 40.4476 44.4133ZM42.2559 44.4133C42.3889 44.4133 42.4965 44.5179 42.4965 44.647V46.5919C42.4965 46.721 42.3889 46.8256 42.2559 46.8256C42.1233 46.8256 42.0154 46.721 42.0154 46.5919V44.647C42.0154 44.5179 42.1233 44.4133 42.2559 44.4133ZM29.0703 10.3979V4.0904C29.0703 2.21919 27.2997 0.696808 25.1237 0.696808H25.0393C22.8636 0.696808 21.093 2.21919 21.093 4.0904V10.3979C21.093 12.4058 22.8636 14.0395 25.0393 14.0395H25.1237C27.2997 14.0395 29.0703 12.4058 29.0703 10.3979ZM31.4068 29.3767H30.9461V7.83341C30.9461 6.41386 30.4329 5.04631 29.525 3.98377C29.5261 4.01941 29.531 4.05418 29.531 4.0904V10.3979C29.531 12.6635 27.5541 14.507 25.1237 14.507H25.0393C22.6092 14.507 20.6323 12.6635 20.6323 10.3979V4.0904C20.6323 4.05476 20.6372 4.02029 20.6383 3.98494C19.7324 5.04836 19.2204 6.41532 19.2204 7.83341V29.3767H18.7597V7.83341C18.7597 6.07088 19.4889 4.37876 20.7611 3.17978C21.2301 1.4897 22.9676 0.22937 25.0393 0.22937H25.1237C27.1957 0.22937 28.9332 1.4897 29.4022 3.18007C30.6764 4.37788 31.4068 6.06971 31.4068 7.83341V29.3767ZM28.3174 19.825C28.3174 19.9595 28.2143 20.0685 28.0872 20.0685H22.621C22.4939 20.0685 22.3905 19.9595 22.3905 19.825C22.3905 19.6905 22.4939 19.5816 22.621 19.5816H28.0872C28.2143 19.5816 28.3174 19.6905 28.3174 19.825ZM23.8905 22.4587H26.8177C26.945 22.4587 27.0482 22.5676 27.0482 22.7021C27.0482 22.8366 26.945 22.9456 26.8177 22.9456H23.8905C23.7634 22.9456 23.66 22.8366 23.66 22.7021C23.66 22.5676 23.7634 22.4587 23.8905 22.4587Z" fill="white"/>
</g>
<defs>
<clipPath id="clip0_25_20">
<rect width="51" height="50" fill="white"/>
</clipPath>
</defs>
</svg>
