<svg width="48" height="48" viewBox="0 0 48 48" fill="none" xmlns="http://www.w3.org/2000/svg">
<g clip-path="url(#clip0_7_365)">
<path fill-rule="evenodd" clip-rule="evenodd" d="M48 24.0005C48 37.2553 37.2548 48.0005 24 48.0005C10.7452 48.0005 0 37.2553 0 24.0005C0 10.7457 10.7452 0.000488281 24 0.000488281C37.2548 0.000488281 48 10.7457 48 24.0005ZM24.8601 17.7183C22.5257 18.6893 17.8603 20.6989 10.8638 23.7471C9.72766 24.1989 9.13251 24.6409 9.07834 25.0731C8.98677 25.8035 9.90142 26.0911 11.1469 26.4827C11.3164 26.536 11.4919 26.5912 11.6719 26.6497C12.8973 27.048 14.5457 27.514 15.4026 27.5326C16.1799 27.5493 17.0475 27.2289 18.0053 26.5712C24.5423 22.1585 27.9168 19.9281 28.1286 19.88C28.2781 19.8461 28.4852 19.8034 28.6255 19.9282C28.7659 20.0529 28.7521 20.2891 28.7372 20.3525C28.6466 20.7388 25.0562 24.0767 23.1982 25.804C22.619 26.3425 22.2081 26.7245 22.1242 26.8118C21.936 27.0072 21.7443 27.192 21.56 27.3697C20.4215 28.4671 19.5678 29.2901 21.6072 30.6341C22.5873 31.2799 23.3715 31.814 24.1539 32.3468C25.0084 32.9287 25.8606 33.509 26.9632 34.2318C27.2442 34.416 27.5125 34.6072 27.7738 34.7935C28.7681 35.5024 29.6615 36.1393 30.7652 36.0378C31.4065 35.9787 32.0689 35.3757 32.4053 33.5772C33.2004 29.3268 34.7633 20.1174 35.1244 16.3224C35.1561 15.9899 35.1163 15.5644 35.0843 15.3776C35.0523 15.1908 34.9855 14.9247 34.7427 14.7277C34.4552 14.4944 34.0113 14.4452 33.8127 14.4487C32.91 14.4646 31.5251 14.9461 24.8601 17.7183Z" fill="white"/>
</g>
<defs>
<clipPath id="clip0_7_365">
<rect width="48" height="48" fill="white" transform="translate(0 0.000488281)"/>
</clipPath>
</defs>
</svg>
