<svg width="48" height="48" viewBox="0 0 48 48" fill="none" xmlns="http://www.w3.org/2000/svg">
<g clip-path="url(#clip0_7_362)">
<path fill-rule="evenodd" clip-rule="evenodd" d="M3.37413 3.37474C0 6.74887 0 12.1794 0 23.0406V24.9606C0 35.8218 0 41.2523 3.37413 44.6265C6.74826 48.0006 12.1788 48.0006 23.04 48.0006H24.96C35.8212 48.0006 41.2517 48.0006 44.6259 44.6265C48 41.2523 48 35.8218 48 24.9606V23.0406C48 12.1794 48 6.74887 44.6259 3.37474C41.2517 0.000610352 35.8212 0.000610352 24.96 0.000610352H23.04C12.1788 0.000610352 6.74826 0.000610352 3.37413 3.37474ZM8.10012 14.6007C8.36012 27.0807 14.6001 34.5807 25.5401 34.5807H26.1602V27.4407C30.1802 27.8407 33.22 30.7807 34.44 34.5807H40.1201C38.5601 28.9007 34.4599 25.7607 31.8999 24.5607C34.4599 23.0807 38.0599 19.4807 38.9199 14.6007H33.7598C32.6398 18.5607 29.3202 22.1607 26.1602 22.5007V14.6007H21V28.4407C17.8 27.6407 13.7601 23.7607 13.5801 14.6007H8.10012Z" fill="white"/>
</g>
<defs>
<clipPath id="clip0_7_362">
<rect width="48" height="48" fill="white" transform="translate(0 0.000610352)"/>
</clipPath>
</defs>
</svg>
